<?xml version="1.0" encoding="UTF-8" standalone="no"?>
<!DOCTYPE svg PUBLIC "-//W3C//DTD SVG 1.1//EN"
 "http://www.w3.org/Graphics/SVG/1.1/DTD/svg11.dtd">
<!-- Generated by graphviz version 2.38.0 (20140413.2041)
 -->
<!-- Title: %3 Pages: 1 -->
<svg width="1550pt" height="653pt"
 viewBox="0.00 0.00 1549.99 653.00" xmlns="http://www.w3.org/2000/svg" xmlns:xlink="http://www.w3.org/1999/xlink">
<g id="graph0" class="graph" transform="scale(1 1) rotate(0) translate(4 649)">
<title>%3</title>
<polygon fill="white" stroke="none" points="-4,4 -4,-649 1545.99,-649 1545.99,4 -4,4"/>
<!-- 0 -->
<g id="node1" class="node"><title>0</title>
<ellipse fill="none" stroke="black" cx="270.993" cy="-627" rx="114.28" ry="18"/>
<text text-anchor="middle" x="270.993" y="-623.3" font-family="Times New Roman,serif" font-size="14.00">HRV_MeanNN&lt;481.001038</text>
</g>
<!-- 1 -->
<g id="node2" class="node"><title>1</title>
<ellipse fill="none" stroke="black" cx="201.993" cy="-540" rx="70.6878" ry="18"/>
<text text-anchor="middle" x="201.993" y="-536.3" font-family="Times New Roman,serif" font-size="14.00">leaf=0.13333334</text>
</g>
<!-- 0&#45;&gt;1 -->
<g id="edge1" class="edge"><title>0&#45;&gt;1</title>
<path fill="none" stroke="#0000ff" d="M257.03,-608.799C247.051,-596.506 233.468,-579.774 222.293,-566.007"/>
<polygon fill="#0000ff" stroke="#0000ff" points="224.72,-563.443 215.7,-557.885 219.285,-567.855 224.72,-563.443"/>
<text text-anchor="middle" x="275.493" y="-579.8" font-family="Times New Roman,serif" font-size="14.00">yes, missing</text>
</g>
<!-- 2 -->
<g id="node3" class="node"><title>2</title>
<ellipse fill="none" stroke="black" cx="387.993" cy="-540" rx="97.4827" ry="18"/>
<text text-anchor="middle" x="387.993" y="-536.3" font-family="Times New Roman,serif" font-size="14.00">PQSkew&lt;&#45;0.416461945</text>
</g>
<!-- 0&#45;&gt;2 -->
<g id="edge2" class="edge"><title>0&#45;&gt;2</title>
<path fill="none" stroke="#ff0000" d="M294.109,-609.207C311.976,-596.226 336.898,-578.12 356.575,-563.825"/>
<polygon fill="#ff0000" stroke="#ff0000" points="358.892,-566.468 364.926,-557.758 354.778,-560.804 358.892,-566.468"/>
<text text-anchor="middle" x="344.493" y="-579.8" font-family="Times New Roman,serif" font-size="14.00">no</text>
</g>
<!-- 3 -->
<g id="node4" class="node"><title>3</title>
<ellipse fill="none" stroke="black" cx="243.993" cy="-453" rx="105.082" ry="18"/>
<text text-anchor="middle" x="243.993" y="-449.3" font-family="Times New Roman,serif" font-size="14.00">RdPStd&lt;5.65692416e+10</text>
</g>
<!-- 2&#45;&gt;3 -->
<g id="edge3" class="edge"><title>2&#45;&gt;3</title>
<path fill="none" stroke="#ff0000" d="M360.228,-522.611C337.664,-509.292 305.635,-490.386 280.911,-475.792"/>
<polygon fill="#ff0000" stroke="#ff0000" points="282.555,-472.698 272.164,-470.629 278.996,-478.726 282.555,-472.698"/>
<text text-anchor="middle" x="334.493" y="-492.8" font-family="Times New Roman,serif" font-size="14.00">yes</text>
</g>
<!-- 4 -->
<g id="node5" class="node"><title>4</title>
<ellipse fill="none" stroke="black" cx="481.993" cy="-453" rx="114.28" ry="18"/>
<text text-anchor="middle" x="481.993" y="-449.3" font-family="Times New Roman,serif" font-size="14.00">HRV_MeanNN&lt;716.611084</text>
</g>
<!-- 2&#45;&gt;4 -->
<g id="edge4" class="edge"><title>2&#45;&gt;4</title>
<path fill="none" stroke="#0000ff" d="M406.564,-522.207C420.507,-509.599 439.795,-492.158 455.376,-478.068"/>
<polygon fill="#0000ff" stroke="#0000ff" points="458.069,-480.352 463.139,-471.049 453.374,-475.16 458.069,-480.352"/>
<text text-anchor="middle" x="472.993" y="-492.8" font-family="Times New Roman,serif" font-size="14.00">no, missing</text>
</g>
<!-- 5 -->
<g id="node6" class="node"><title>5</title>
<ellipse fill="none" stroke="black" cx="77.9931" cy="-366" rx="77.9862" ry="18"/>
<text text-anchor="middle" x="77.9931" y="-362.3" font-family="Times New Roman,serif" font-size="14.00">leaf=&#45;0.114285722</text>
</g>
<!-- 3&#45;&gt;5 -->
<g id="edge5" class="edge"><title>3&#45;&gt;5</title>
<path fill="none" stroke="#0000ff" d="M212.023,-435.838C200.36,-429.927 187.072,-423.177 174.993,-417 156.206,-407.393 135.406,-396.682 117.901,-387.645"/>
<polygon fill="#0000ff" stroke="#0000ff" points="119.039,-384.294 108.548,-382.814 115.827,-390.513 119.039,-384.294"/>
<text text-anchor="middle" x="209.493" y="-405.8" font-family="Times New Roman,serif" font-size="14.00">yes, missing</text>
</g>
<!-- 6 -->
<g id="node7" class="node"><title>6</title>
<ellipse fill="none" stroke="black" cx="251.993" cy="-366" rx="77.9862" ry="18"/>
<text text-anchor="middle" x="251.993" y="-362.3" font-family="Times New Roman,serif" font-size="14.00">leaf=&#45;0.195652172</text>
</g>
<!-- 3&#45;&gt;6 -->
<g id="edge6" class="edge"><title>3&#45;&gt;6</title>
<path fill="none" stroke="#ff0000" d="M245.612,-434.799C246.707,-423.163 248.177,-407.548 249.43,-394.237"/>
<polygon fill="#ff0000" stroke="#ff0000" points="252.924,-394.459 250.377,-384.175 245.955,-393.803 252.924,-394.459"/>
<text text-anchor="middle" x="256.493" y="-405.8" font-family="Times New Roman,serif" font-size="14.00">no</text>
</g>
<!-- 7 -->
<g id="node8" class="node"><title>7</title>
<ellipse fill="none" stroke="black" cx="459.993" cy="-366" rx="82.5854" ry="18"/>
<text text-anchor="middle" x="459.993" y="-362.3" font-family="Times New Roman,serif" font-size="14.00">PRStd&lt;6.25139952</text>
</g>
<!-- 4&#45;&gt;7 -->
<g id="edge7" class="edge"><title>4&#45;&gt;7</title>
<path fill="none" stroke="#0000ff" d="M477.541,-434.799C474.529,-423.163 470.488,-407.548 467.043,-394.237"/>
<polygon fill="#0000ff" stroke="#0000ff" points="470.333,-392.979 464.438,-384.175 463.556,-394.733 470.333,-392.979"/>
<text text-anchor="middle" x="507.493" y="-405.8" font-family="Times New Roman,serif" font-size="14.00">yes, missing</text>
</g>
<!-- 8 -->
<g id="node9" class="node"><title>8</title>
<ellipse fill="none" stroke="black" cx="757.993" cy="-366" rx="89.8845" ry="18"/>
<text text-anchor="middle" x="757.993" y="-362.3" font-family="Times New Roman,serif" font-size="14.00">PRMean&lt;53.0388565</text>
</g>
<!-- 4&#45;&gt;8 -->
<g id="edge8" class="edge"><title>4&#45;&gt;8</title>
<path fill="none" stroke="#ff0000" d="M531.655,-436.706C579.379,-422.008 651.419,-399.822 701.353,-384.443"/>
<polygon fill="#ff0000" stroke="#ff0000" points="702.505,-387.751 711.032,-381.463 700.445,-381.061 702.505,-387.751"/>
<text text-anchor="middle" x="643.493" y="-405.8" font-family="Times New Roman,serif" font-size="14.00">no</text>
</g>
<!-- 9 -->
<g id="node10" class="node"><title>9</title>
<ellipse fill="none" stroke="black" cx="274.993" cy="-279" rx="77.9862" ry="18"/>
<text text-anchor="middle" x="274.993" y="-275.3" font-family="Times New Roman,serif" font-size="14.00">leaf=&#45;0.175999999</text>
</g>
<!-- 7&#45;&gt;9 -->
<g id="edge9" class="edge"><title>7&#45;&gt;9</title>
<path fill="none" stroke="#0000ff" d="M426.061,-349.41C395.585,-335.407 350.7,-314.784 317.774,-299.656"/>
<polygon fill="#0000ff" stroke="#0000ff" points="318.946,-296.343 308.398,-295.348 316.024,-302.704 318.946,-296.343"/>
<text text-anchor="middle" x="413.493" y="-318.8" font-family="Times New Roman,serif" font-size="14.00">yes, missing</text>
</g>
<!-- 10 -->
<g id="node11" class="node"><title>10</title>
<ellipse fill="none" stroke="black" cx="459.993" cy="-279" rx="89.0842" ry="18"/>
<text text-anchor="middle" x="459.993" y="-275.3" font-family="Times New Roman,serif" font-size="14.00">STMean&lt;28.9112892</text>
</g>
<!-- 7&#45;&gt;10 -->
<g id="edge10" class="edge"><title>7&#45;&gt;10</title>
<path fill="none" stroke="#ff0000" d="M459.993,-347.799C459.993,-336.163 459.993,-320.548 459.993,-307.237"/>
<polygon fill="#ff0000" stroke="#ff0000" points="463.493,-307.175 459.993,-297.175 456.493,-307.175 463.493,-307.175"/>
<text text-anchor="middle" x="467.493" y="-318.8" font-family="Times New Roman,serif" font-size="14.00">no</text>
</g>
<!-- 11 -->
<g id="node20" class="node"><title>11</title>
<ellipse fill="none" stroke="black" cx="757.993" cy="-279" rx="53.8905" ry="18"/>
<text text-anchor="middle" x="757.993" y="-275.3" font-family="Times New Roman,serif" font-size="14.00">PQMin&lt;9.5</text>
</g>
<!-- 8&#45;&gt;11 -->
<g id="edge19" class="edge"><title>8&#45;&gt;11</title>
<path fill="none" stroke="#0000ff" d="M757.993,-347.799C757.993,-336.163 757.993,-320.548 757.993,-307.237"/>
<polygon fill="#0000ff" stroke="#0000ff" points="761.493,-307.175 757.993,-297.175 754.493,-307.175 761.493,-307.175"/>
<text text-anchor="middle" x="792.493" y="-318.8" font-family="Times New Roman,serif" font-size="14.00">yes, missing</text>
</g>
<!-- 12 -->
<g id="node21" class="node"><title>12</title>
<ellipse fill="none" stroke="black" cx="1054.99" cy="-279" rx="98.2828" ry="18"/>
<text text-anchor="middle" x="1054.99" y="-275.3" font-family="Times New Roman,serif" font-size="14.00">SStatKurt&lt;0.657794535</text>
</g>
<!-- 8&#45;&gt;12 -->
<g id="edge20" class="edge"><title>8&#45;&gt;12</title>
<path fill="none" stroke="#ff0000" d="M807.37,-350.869C858.875,-336.128 939.658,-313.008 994.851,-297.212"/>
<polygon fill="#ff0000" stroke="#ff0000" points="995.853,-300.566 1004.5,-294.45 993.927,-293.836 995.853,-300.566"/>
<text text-anchor="middle" x="931.493" y="-318.8" font-family="Times New Roman,serif" font-size="14.00">no</text>
</g>
<!-- 13 -->
<g id="node12" class="node"><title>13</title>
<ellipse fill="none" stroke="black" cx="254.993" cy="-192" rx="77.9862" ry="18"/>
<text text-anchor="middle" x="254.993" y="-188.3" font-family="Times New Roman,serif" font-size="14.00">leaf=&#45;0.102564111</text>
</g>
<!-- 10&#45;&gt;13 -->
<g id="edge11" class="edge"><title>10&#45;&gt;13</title>
<path fill="none" stroke="#ff0000" d="M422.869,-262.607C388.552,-248.378 337.455,-227.192 300.654,-211.933"/>
<polygon fill="#ff0000" stroke="#ff0000" points="301.731,-208.59 291.153,-207.993 299.05,-215.056 301.731,-208.59"/>
<text text-anchor="middle" x="379.493" y="-231.8" font-family="Times New Roman,serif" font-size="14.00">yes</text>
</g>
<!-- 14 -->
<g id="node13" class="node"><title>14</title>
<ellipse fill="none" stroke="black" cx="459.993" cy="-192" rx="108.581" ry="18"/>
<text text-anchor="middle" x="459.993" y="-188.3" font-family="Times New Roman,serif" font-size="14.00">RdSMean&lt;&#45;5.7213598e&#45;13</text>
</g>
<!-- 10&#45;&gt;14 -->
<g id="edge12" class="edge"><title>10&#45;&gt;14</title>
<path fill="none" stroke="#0000ff" d="M459.993,-260.799C459.993,-249.163 459.993,-233.548 459.993,-220.237"/>
<polygon fill="#0000ff" stroke="#0000ff" points="463.493,-220.175 459.993,-210.175 456.493,-220.175 463.493,-220.175"/>
<text text-anchor="middle" x="491.993" y="-231.8" font-family="Times New Roman,serif" font-size="14.00">no, missing</text>
</g>
<!-- 19 -->
<g id="node14" class="node"><title>19</title>
<ellipse fill="none" stroke="black" cx="373.993" cy="-105" rx="59.5901" ry="18"/>
<text text-anchor="middle" x="373.993" y="-101.3" font-family="Times New Roman,serif" font-size="14.00">RTMax&lt;73.5</text>
</g>
<!-- 14&#45;&gt;19 -->
<g id="edge13" class="edge"><title>14&#45;&gt;19</title>
<path fill="none" stroke="#0000ff" d="M443.002,-174.207C430.08,-161.435 412.138,-143.701 397.787,-129.518"/>
<polygon fill="#0000ff" stroke="#0000ff" points="400.229,-127.009 390.656,-122.469 395.308,-131.988 400.229,-127.009"/>
<text text-anchor="middle" x="457.493" y="-144.8" font-family="Times New Roman,serif" font-size="14.00">yes, missing</text>
</g>
<!-- 20 -->
<g id="node15" class="node"><title>20</title>
<ellipse fill="none" stroke="black" cx="546.993" cy="-105" rx="94.7833" ry="18"/>
<text text-anchor="middle" x="546.993" y="-101.3" font-family="Times New Roman,serif" font-size="14.00">PQSkew&lt;0.788699627</text>
</g>
<!-- 14&#45;&gt;20 -->
<g id="edge14" class="edge"><title>14&#45;&gt;20</title>
<path fill="none" stroke="#ff0000" d="M477.586,-173.925C483.446,-168.229 490.005,-161.846 495.993,-156 504.552,-147.644 513.903,-138.485 522.233,-130.316"/>
<polygon fill="#ff0000" stroke="#ff0000" points="524.857,-132.644 529.544,-123.142 519.955,-127.648 524.857,-132.644"/>
<text text-anchor="middle" x="518.493" y="-144.8" font-family="Times New Roman,serif" font-size="14.00">no</text>
</g>
<!-- 25 -->
<g id="node16" class="node"><title>25</title>
<ellipse fill="none" stroke="black" cx="202.993" cy="-18" rx="75.2868" ry="18"/>
<text text-anchor="middle" x="202.993" y="-14.3" font-family="Times New Roman,serif" font-size="14.00">leaf=0.192857146</text>
</g>
<!-- 19&#45;&gt;25 -->
<g id="edge15" class="edge"><title>19&#45;&gt;25</title>
<path fill="none" stroke="#ff0000" d="M344.207,-89.1941C316.284,-75.3142 274.318,-54.4541 243.388,-39.0793"/>
<polygon fill="#ff0000" stroke="#ff0000" points="244.683,-35.8147 234.171,-34.4976 241.567,-42.083 244.683,-35.8147"/>
<text text-anchor="middle" x="308.493" y="-57.8" font-family="Times New Roman,serif" font-size="14.00">yes</text>
</g>
<!-- 26 -->
<g id="node17" class="node"><title>26</title>
<ellipse fill="none" stroke="black" cx="375.993" cy="-18" rx="79.0865" ry="18"/>
<text text-anchor="middle" x="375.993" y="-14.3" font-family="Times New Roman,serif" font-size="14.00">leaf=0.0761904791</text>
</g>
<!-- 19&#45;&gt;26 -->
<g id="edge16" class="edge"><title>19&#45;&gt;26</title>
<path fill="none" stroke="#0000ff" d="M374.398,-86.799C374.672,-75.1626 375.039,-59.5479 375.352,-46.2368"/>
<polygon fill="#0000ff" stroke="#0000ff" points="378.853,-46.255 375.589,-36.1754 371.855,-46.0903 378.853,-46.255"/>
<text text-anchor="middle" x="407.993" y="-57.8" font-family="Times New Roman,serif" font-size="14.00">no, missing</text>
</g>
<!-- 27 -->
<g id="node18" class="node"><title>27</title>
<ellipse fill="none" stroke="black" cx="544.993" cy="-18" rx="70.6878" ry="18"/>
<text text-anchor="middle" x="544.993" y="-14.3" font-family="Times New Roman,serif" font-size="14.00">leaf=0.13333334</text>
</g>
<!-- 20&#45;&gt;27 -->
<g id="edge17" class="edge"><title>20&#45;&gt;27</title>
<path fill="none" stroke="#ff0000" d="M546.588,-86.799C546.315,-75.1626 545.947,-59.5479 545.634,-46.2368"/>
<polygon fill="#ff0000" stroke="#ff0000" points="549.132,-46.0903 545.397,-36.1754 542.134,-46.255 549.132,-46.0903"/>
<text text-anchor="middle" x="556.493" y="-57.8" font-family="Times New Roman,serif" font-size="14.00">yes</text>
</g>
<!-- 28 -->
<g id="node19" class="node"><title>28</title>
<ellipse fill="none" stroke="black" cx="715.993" cy="-18" rx="82.5854" ry="18"/>
<text text-anchor="middle" x="715.993" y="-14.3" font-family="Times New Roman,serif" font-size="14.00">leaf=&#45;0.0695652217</text>
</g>
<!-- 20&#45;&gt;28 -->
<g id="edge18" class="edge"><title>20&#45;&gt;28</title>
<path fill="none" stroke="#0000ff" d="M578.781,-88.0122C606.131,-74.2562 645.748,-54.3304 675.389,-39.4222"/>
<polygon fill="#0000ff" stroke="#0000ff" points="677.273,-42.3925 684.634,-34.7723 674.128,-36.1389 677.273,-42.3925"/>
<text text-anchor="middle" x="672.993" y="-57.8" font-family="Times New Roman,serif" font-size="14.00">no, missing</text>
</g>
<!-- 15 -->
<g id="node22" class="node"><title>15</title>
<ellipse fill="none" stroke="black" cx="668.993" cy="-192" rx="82.5854" ry="18"/>
<text text-anchor="middle" x="668.993" y="-188.3" font-family="Times New Roman,serif" font-size="14.00">leaf=&#45;0.0818181857</text>
</g>
<!-- 11&#45;&gt;15 -->
<g id="edge21" class="edge"><title>11&#45;&gt;15</title>
<path fill="none" stroke="#ff0000" d="M740.833,-261.611C727.498,-248.876 708.817,-231.034 693.846,-216.736"/>
<polygon fill="#ff0000" stroke="#ff0000" points="696.053,-214.004 686.404,-209.629 691.219,-219.066 696.053,-214.004"/>
<text text-anchor="middle" x="727.493" y="-231.8" font-family="Times New Roman,serif" font-size="14.00">yes</text>
</g>
<!-- 16 -->
<g id="node23" class="node"><title>16</title>
<ellipse fill="none" stroke="black" cx="847.993" cy="-192" rx="77.9862" ry="18"/>
<text text-anchor="middle" x="847.993" y="-188.3" font-family="Times New Roman,serif" font-size="14.00">leaf=&#45;0.196078435</text>
</g>
<!-- 11&#45;&gt;16 -->
<g id="edge22" class="edge"><title>11&#45;&gt;16</title>
<path fill="none" stroke="#0000ff" d="M775.346,-261.611C788.83,-248.876 807.722,-231.034 822.861,-216.736"/>
<polygon fill="#0000ff" stroke="#0000ff" points="825.519,-219.039 830.386,-209.629 820.713,-213.95 825.519,-219.039"/>
<text text-anchor="middle" x="839.993" y="-231.8" font-family="Times New Roman,serif" font-size="14.00">no, missing</text>
</g>
<!-- 17 -->
<g id="node24" class="node"><title>17</title>
<ellipse fill="none" stroke="black" cx="1054.99" cy="-192" rx="111.28" ry="18"/>
<text text-anchor="middle" x="1054.99" y="-188.3" font-family="Times New Roman,serif" font-size="14.00">HRV_MadNN&lt;109.959503</text>
</g>
<!-- 12&#45;&gt;17 -->
<g id="edge23" class="edge"><title>12&#45;&gt;17</title>
<path fill="none" stroke="#0000ff" d="M1054.99,-260.799C1054.99,-249.163 1054.99,-233.548 1054.99,-220.237"/>
<polygon fill="#0000ff" stroke="#0000ff" points="1058.49,-220.175 1054.99,-210.175 1051.49,-220.175 1058.49,-220.175"/>
<text text-anchor="middle" x="1089.49" y="-231.8" font-family="Times New Roman,serif" font-size="14.00">yes, missing</text>
</g>
<!-- 18 -->
<g id="node25" class="node"><title>18</title>
<ellipse fill="none" stroke="black" cx="1274.99" cy="-192" rx="90.9839" ry="18"/>
<text text-anchor="middle" x="1274.99" y="-188.3" font-family="Times New Roman,serif" font-size="14.00">TStatStd&lt;116.921051</text>
</g>
<!-- 12&#45;&gt;18 -->
<g id="edge24" class="edge"><title>12&#45;&gt;18</title>
<path fill="none" stroke="#ff0000" d="M1095.09,-262.509C1131.88,-248.294 1186.48,-227.198 1225.88,-211.977"/>
<polygon fill="#ff0000" stroke="#ff0000" points="1227.48,-215.111 1235.54,-208.242 1224.95,-208.581 1227.48,-215.111"/>
<text text-anchor="middle" x="1185.49" y="-231.8" font-family="Times New Roman,serif" font-size="14.00">no</text>
</g>
<!-- 21 -->
<g id="node26" class="node"><title>21</title>
<ellipse fill="none" stroke="black" cx="880.993" cy="-105" rx="77.9862" ry="18"/>
<text text-anchor="middle" x="880.993" y="-101.3" font-family="Times New Roman,serif" font-size="14.00">leaf=&#45;0.179999992</text>
</g>
<!-- 17&#45;&gt;21 -->
<g id="edge25" class="edge"><title>17&#45;&gt;21</title>
<path fill="none" stroke="#0000ff" d="M1021.86,-174.812C993.439,-160.931 952.384,-140.875 921.921,-125.994"/>
<polygon fill="#0000ff" stroke="#0000ff" points="923.355,-122.799 912.833,-121.554 920.282,-129.088 923.355,-122.799"/>
<text text-anchor="middle" x="1012.49" y="-144.8" font-family="Times New Roman,serif" font-size="14.00">yes, missing</text>
</g>
<!-- 22 -->
<g id="node27" class="node"><title>22</title>
<ellipse fill="none" stroke="black" cx="1059.99" cy="-105" rx="82.5854" ry="18"/>
<text text-anchor="middle" x="1059.99" y="-101.3" font-family="Times New Roman,serif" font-size="14.00">leaf=&#45;0.0592592619</text>
</g>
<!-- 17&#45;&gt;22 -->
<g id="edge26" class="edge"><title>17&#45;&gt;22</title>
<path fill="none" stroke="#ff0000" d="M1056,-173.799C1056.69,-162.163 1057.61,-146.548 1058.39,-133.237"/>
<polygon fill="#ff0000" stroke="#ff0000" points="1061.89,-133.364 1058.98,-123.175 1054.9,-132.953 1061.89,-133.364"/>
<text text-anchor="middle" x="1064.49" y="-144.8" font-family="Times New Roman,serif" font-size="14.00">no</text>
</g>
<!-- 23 -->
<g id="node28" class="node"><title>23</title>
<ellipse fill="none" stroke="black" cx="1268.99" cy="-105" rx="98.5829" ry="18"/>
<text text-anchor="middle" x="1268.99" y="-101.3" font-family="Times New Roman,serif" font-size="14.00">HRV_TINN&lt;199.21875</text>
</g>
<!-- 18&#45;&gt;23 -->
<g id="edge27" class="edge"><title>18&#45;&gt;23</title>
<path fill="none" stroke="#ff0000" d="M1273.78,-173.799C1272.96,-162.163 1271.86,-146.548 1270.92,-133.237"/>
<polygon fill="#ff0000" stroke="#ff0000" points="1274.4,-132.904 1270.21,-123.175 1267.42,-133.397 1274.4,-132.904"/>
<text text-anchor="middle" x="1281.49" y="-144.8" font-family="Times New Roman,serif" font-size="14.00">yes</text>
</g>
<!-- 24 -->
<g id="node29" class="node"><title>24</title>
<ellipse fill="none" stroke="black" cx="1463.99" cy="-105" rx="77.9862" ry="18"/>
<text text-anchor="middle" x="1463.99" y="-101.3" font-family="Times New Roman,serif" font-size="14.00">leaf=&#45;0.118181817</text>
</g>
<!-- 18&#45;&gt;24 -->
<g id="edge28" class="edge"><title>18&#45;&gt;24</title>
<path fill="none" stroke="#0000ff" d="M1310.1,-175.211C1341.29,-161.185 1386.99,-140.63 1420.49,-125.564"/>
<polygon fill="#0000ff" stroke="#0000ff" points="1422.34,-128.569 1430.03,-121.275 1419.47,-122.185 1422.34,-128.569"/>
<text text-anchor="middle" x="1411.99" y="-144.8" font-family="Times New Roman,serif" font-size="14.00">no, missing</text>
</g>
<!-- 29 -->
<g id="node30" class="node"><title>29</title>
<ellipse fill="none" stroke="black" cx="1180.99" cy="-18" rx="82.5854" ry="18"/>
<text text-anchor="middle" x="1180.99" y="-14.3" font-family="Times New Roman,serif" font-size="14.00">leaf=&#45;0.0129032256</text>
</g>
<!-- 23&#45;&gt;29 -->
<g id="edge29" class="edge"><title>23&#45;&gt;29</title>
<path fill="none" stroke="#0000ff" d="M1251.61,-87.2067C1238.47,-74.517 1220.26,-56.9297 1205.63,-42.7925"/>
<polygon fill="#0000ff" stroke="#0000ff" points="1207.97,-40.1884 1198.34,-35.7584 1203.1,-45.2232 1207.97,-40.1884"/>
<text text-anchor="middle" x="1264.49" y="-57.8" font-family="Times New Roman,serif" font-size="14.00">yes, missing</text>
</g>
<!-- 30 -->
<g id="node31" class="node"><title>30</title>
<ellipse fill="none" stroke="black" cx="1356.99" cy="-18" rx="75.2868" ry="18"/>
<text text-anchor="middle" x="1356.99" y="-14.3" font-family="Times New Roman,serif" font-size="14.00">leaf=0.152380958</text>
</g>
<!-- 23&#45;&gt;30 -->
<g id="edge30" class="edge"><title>23&#45;&gt;30</title>
<path fill="none" stroke="#ff0000" d="M1286.38,-87.2067C1299.52,-74.517 1317.72,-56.9297 1332.36,-42.7925"/>
<polygon fill="#ff0000" stroke="#ff0000" points="1334.88,-45.2232 1339.64,-35.7584 1330.02,-40.1884 1334.88,-45.2232"/>
<text text-anchor="middle" x="1325.49" y="-57.8" font-family="Times New Roman,serif" font-size="14.00">no</text>
</g>
</g>
</svg>
