<?xml version="1.0" encoding="UTF-8" standalone="no"?>
<!DOCTYPE svg PUBLIC "-//W3C//DTD SVG 1.1//EN"
 "http://www.w3.org/Graphics/SVG/1.1/DTD/svg11.dtd">
<!-- Generated by graphviz version 2.38.0 (20140413.2041)
 -->
<!-- Title: %3 Pages: 1 -->
<svg width="1169pt" height="566pt"
 viewBox="0.00 0.00 1168.54 566.00" xmlns="http://www.w3.org/2000/svg" xmlns:xlink="http://www.w3.org/1999/xlink">
<g id="graph0" class="graph" transform="scale(1 1) rotate(0) translate(4 562)">
<title>%3</title>
<polygon fill="white" stroke="none" points="-4,4 -4,-562 1164.54,-562 1164.54,4 -4,4"/>
<!-- 0 -->
<g id="node1" class="node"><title>0</title>
<ellipse fill="none" stroke="black" cx="471.993" cy="-540" rx="121.578" ry="18"/>
<text text-anchor="middle" x="471.993" y="-536.3" font-family="Times New Roman,serif" font-size="14.00">HRV_MedianNN&lt;480.833313</text>
</g>
<!-- 1 -->
<g id="node2" class="node"><title>1</title>
<ellipse fill="none" stroke="black" cx="341.993" cy="-453" rx="89.0842" ry="18"/>
<text text-anchor="middle" x="341.993" y="-449.3" font-family="Times New Roman,serif" font-size="14.00">PSMean&lt;50.3055191</text>
</g>
<!-- 0&#45;&gt;1 -->
<g id="edge1" class="edge"><title>0&#45;&gt;1</title>
<path fill="none" stroke="#0000ff" d="M446.309,-522.207C426.059,-508.966 397.653,-490.393 375.596,-475.971"/>
<polygon fill="#0000ff" stroke="#0000ff" points="377.466,-473.012 367.181,-470.469 373.636,-478.871 377.466,-473.012"/>
<text text-anchor="middle" x="449.493" y="-492.8" font-family="Times New Roman,serif" font-size="14.00">yes, missing</text>
</g>
<!-- 2 -->
<g id="node3" class="node"><title>2</title>
<ellipse fill="none" stroke="black" cx="568.993" cy="-453" rx="119.679" ry="18"/>
<text text-anchor="middle" x="568.993" y="-449.3" font-family="Times New Roman,serif" font-size="14.00">HRV_MCVNN&lt;0.139672995</text>
</g>
<!-- 0&#45;&gt;2 -->
<g id="edge2" class="edge"><title>0&#45;&gt;2</title>
<path fill="none" stroke="#ff0000" d="M491.157,-522.207C505.676,-509.484 525.814,-491.837 541.968,-477.681"/>
<polygon fill="#ff0000" stroke="#ff0000" points="544.323,-480.272 549.537,-471.049 539.709,-475.008 544.323,-480.272"/>
<text text-anchor="middle" x="534.493" y="-492.8" font-family="Times New Roman,serif" font-size="14.00">no</text>
</g>
<!-- 3 -->
<g id="node4" class="node"><title>3</title>
<ellipse fill="none" stroke="black" cx="173.993" cy="-366" rx="79.0865" ry="18"/>
<text text-anchor="middle" x="173.993" y="-362.3" font-family="Times New Roman,serif" font-size="14.00">leaf=0.0347826108</text>
</g>
<!-- 1&#45;&gt;3 -->
<g id="edge3" class="edge"><title>1&#45;&gt;3</title>
<path fill="none" stroke="#0000ff" d="M309.906,-436.025C297.989,-430.074 284.364,-423.248 271.993,-417 252.829,-407.32 231.6,-396.501 213.815,-387.41"/>
<polygon fill="#0000ff" stroke="#0000ff" points="215.354,-384.266 204.857,-382.828 212.166,-390.498 215.354,-384.266"/>
<text text-anchor="middle" x="306.493" y="-405.8" font-family="Times New Roman,serif" font-size="14.00">yes, missing</text>
</g>
<!-- 4 -->
<g id="node5" class="node"><title>4</title>
<ellipse fill="none" stroke="black" cx="346.993" cy="-366" rx="75.2868" ry="18"/>
<text text-anchor="middle" x="346.993" y="-362.3" font-family="Times New Roman,serif" font-size="14.00">leaf=0.191666663</text>
</g>
<!-- 1&#45;&gt;4 -->
<g id="edge4" class="edge"><title>1&#45;&gt;4</title>
<path fill="none" stroke="#ff0000" d="M343.005,-434.799C343.689,-423.163 344.608,-407.548 345.391,-394.237"/>
<polygon fill="#ff0000" stroke="#ff0000" points="348.889,-394.364 345.983,-384.175 341.901,-393.953 348.889,-394.364"/>
<text text-anchor="middle" x="352.493" y="-405.8" font-family="Times New Roman,serif" font-size="14.00">no</text>
</g>
<!-- 5 -->
<g id="node6" class="node"><title>5</title>
<ellipse fill="none" stroke="black" cx="554.993" cy="-366" rx="96.3833" ry="18"/>
<text text-anchor="middle" x="554.993" y="-362.3" font-family="Times New Roman,serif" font-size="14.00">PStatMean&lt;&#45;0.8257792</text>
</g>
<!-- 2&#45;&gt;5 -->
<g id="edge5" class="edge"><title>2&#45;&gt;5</title>
<path fill="none" stroke="#0000ff" d="M566.16,-434.799C564.243,-423.163 561.672,-407.548 559.479,-394.237"/>
<polygon fill="#0000ff" stroke="#0000ff" points="562.901,-393.474 557.822,-384.175 555.994,-394.611 562.901,-393.474"/>
<text text-anchor="middle" x="597.493" y="-405.8" font-family="Times New Roman,serif" font-size="14.00">yes, missing</text>
</g>
<!-- 6 -->
<g id="node7" class="node"><title>6</title>
<ellipse fill="none" stroke="black" cx="757.993" cy="-366" rx="89.0842" ry="18"/>
<text text-anchor="middle" x="757.993" y="-362.3" font-family="Times New Roman,serif" font-size="14.00">PSMean&lt;50.4780083</text>
</g>
<!-- 2&#45;&gt;6 -->
<g id="edge6" class="edge"><title>2&#45;&gt;6</title>
<path fill="none" stroke="#ff0000" d="M604.987,-435.812C635.889,-421.915 680.55,-401.829 713.651,-386.942"/>
<polygon fill="#ff0000" stroke="#ff0000" points="715.406,-389.99 723.091,-382.697 712.535,-383.606 715.406,-389.99"/>
<text text-anchor="middle" x="681.493" y="-405.8" font-family="Times New Roman,serif" font-size="14.00">no</text>
</g>
<!-- 7 -->
<g id="node8" class="node"><title>7</title>
<ellipse fill="none" stroke="black" cx="384.993" cy="-279" rx="79.0865" ry="18"/>
<text text-anchor="middle" x="384.993" y="-275.3" font-family="Times New Roman,serif" font-size="14.00">leaf=0.0695652217</text>
</g>
<!-- 5&#45;&gt;7 -->
<g id="edge7" class="edge"><title>5&#45;&gt;7</title>
<path fill="none" stroke="#0000ff" d="M523.017,-349.012C495.419,-335.213 455.402,-315.205 425.556,-300.281"/>
<polygon fill="#0000ff" stroke="#0000ff" points="426.761,-296.971 416.251,-295.629 423.63,-303.232 426.761,-296.971"/>
<text text-anchor="middle" x="515.493" y="-318.8" font-family="Times New Roman,serif" font-size="14.00">yes, missing</text>
</g>
<!-- 8 -->
<g id="node9" class="node"><title>8</title>
<ellipse fill="none" stroke="black" cx="563.993" cy="-279" rx="81.4863" ry="18"/>
<text text-anchor="middle" x="563.993" y="-275.3" font-family="Times New Roman,serif" font-size="14.00">PSStd&lt;19.5816402</text>
</g>
<!-- 5&#45;&gt;8 -->
<g id="edge8" class="edge"><title>5&#45;&gt;8</title>
<path fill="none" stroke="#ff0000" d="M556.814,-347.799C558.046,-336.163 559.7,-320.548 561.109,-307.237"/>
<polygon fill="#ff0000" stroke="#ff0000" points="564.602,-307.488 562.175,-297.175 557.641,-306.751 564.602,-307.488"/>
<text text-anchor="middle" x="568.493" y="-318.8" font-family="Times New Roman,serif" font-size="14.00">no</text>
</g>
<!-- 9 -->
<g id="node18" class="node"><title>9</title>
<ellipse fill="none" stroke="black" cx="753.993" cy="-279" rx="77.9862" ry="18"/>
<text text-anchor="middle" x="753.993" y="-275.3" font-family="Times New Roman,serif" font-size="14.00">leaf=&#45;0.152380958</text>
</g>
<!-- 6&#45;&gt;9 -->
<g id="edge17" class="edge"><title>6&#45;&gt;9</title>
<path fill="none" stroke="#0000ff" d="M757.184,-347.799C756.636,-336.163 755.901,-320.548 755.275,-307.237"/>
<polygon fill="#0000ff" stroke="#0000ff" points="758.768,-307 754.801,-297.175 751.775,-307.329 758.768,-307"/>
<text text-anchor="middle" x="790.493" y="-318.8" font-family="Times New Roman,serif" font-size="14.00">yes, missing</text>
</g>
<!-- 10 -->
<g id="node19" class="node"><title>10</title>
<ellipse fill="none" stroke="black" cx="907.993" cy="-279" rx="58.4896" ry="18"/>
<text text-anchor="middle" x="907.993" y="-275.3" font-family="Times New Roman,serif" font-size="14.00">QTMin&lt;27.5</text>
</g>
<!-- 6&#45;&gt;10 -->
<g id="edge18" class="edge"><title>6&#45;&gt;10</title>
<path fill="none" stroke="#ff0000" d="M791.962,-349.164C803.82,-343.397 817.127,-336.655 828.993,-330 844.937,-321.058 862.143,-310.306 876.414,-301.068"/>
<polygon fill="#ff0000" stroke="#ff0000" points="878.421,-303.938 884.883,-295.541 874.596,-298.075 878.421,-303.938"/>
<text text-anchor="middle" x="860.493" y="-318.8" font-family="Times New Roman,serif" font-size="14.00">no</text>
</g>
<!-- 11 -->
<g id="node10" class="node"><title>11</title>
<ellipse fill="none" stroke="black" cx="381.993" cy="-192" rx="89.0842" ry="18"/>
<text text-anchor="middle" x="381.993" y="-188.3" font-family="Times New Roman,serif" font-size="14.00">PSMean&lt;64.9284058</text>
</g>
<!-- 8&#45;&gt;11 -->
<g id="edge9" class="edge"><title>8&#45;&gt;11</title>
<path fill="none" stroke="#0000ff" d="M530.611,-262.41C500.91,-248.538 457.297,-228.169 424.991,-213.082"/>
<polygon fill="#0000ff" stroke="#0000ff" points="426.321,-209.84 415.779,-208.779 423.359,-216.182 426.321,-209.84"/>
<text text-anchor="middle" x="518.493" y="-231.8" font-family="Times New Roman,serif" font-size="14.00">yes, missing</text>
</g>
<!-- 12 -->
<g id="node11" class="node"><title>12</title>
<ellipse fill="none" stroke="black" cx="578.993" cy="-192" rx="90.1842" ry="18"/>
<text text-anchor="middle" x="578.993" y="-188.3" font-family="Times New Roman,serif" font-size="14.00">QSMean&lt;54.8675232</text>
</g>
<!-- 8&#45;&gt;12 -->
<g id="edge10" class="edge"><title>8&#45;&gt;12</title>
<path fill="none" stroke="#ff0000" d="M567.029,-260.799C569.082,-249.163 571.838,-233.548 574.187,-220.237"/>
<polygon fill="#ff0000" stroke="#ff0000" points="577.671,-220.632 575.962,-210.175 570.777,-219.415 577.671,-220.632"/>
<text text-anchor="middle" x="580.493" y="-231.8" font-family="Times New Roman,serif" font-size="14.00">no</text>
</g>
<!-- 15 -->
<g id="node12" class="node"><title>15</title>
<ellipse fill="none" stroke="black" cx="166.993" cy="-105" rx="124.278" ry="18"/>
<text text-anchor="middle" x="166.993" y="-101.3" font-family="Times New Roman,serif" font-size="14.00">HRV_MCVNN&lt;0.0850686431</text>
</g>
<!-- 11&#45;&gt;15 -->
<g id="edge11" class="edge"><title>11&#45;&gt;15</title>
<path fill="none" stroke="#0000ff" d="M343.058,-175.607C307.806,-161.67 255.672,-141.059 217.278,-125.88"/>
<polygon fill="#0000ff" stroke="#0000ff" points="218.419,-122.567 207.832,-122.146 215.845,-129.077 218.419,-122.567"/>
<text text-anchor="middle" x="322.493" y="-144.8" font-family="Times New Roman,serif" font-size="14.00">yes, missing</text>
</g>
<!-- 16 -->
<g id="node13" class="node"><title>16</title>
<ellipse fill="none" stroke="black" cx="387.993" cy="-105" rx="79.0865" ry="18"/>
<text text-anchor="middle" x="387.993" y="-101.3" font-family="Times New Roman,serif" font-size="14.00">leaf=0.0411764719</text>
</g>
<!-- 11&#45;&gt;16 -->
<g id="edge12" class="edge"><title>11&#45;&gt;16</title>
<path fill="none" stroke="#ff0000" d="M383.207,-173.799C384.029,-162.163 385.131,-146.548 386.07,-133.237"/>
<polygon fill="#ff0000" stroke="#ff0000" points="389.568,-133.397 386.781,-123.175 382.585,-132.904 389.568,-133.397"/>
<text text-anchor="middle" x="393.493" y="-144.8" font-family="Times New Roman,serif" font-size="14.00">no</text>
</g>
<!-- 17 -->
<g id="node16" class="node"><title>17</title>
<ellipse fill="none" stroke="black" cx="573.993" cy="-105" rx="77.9862" ry="18"/>
<text text-anchor="middle" x="573.993" y="-101.3" font-family="Times New Roman,serif" font-size="14.00">leaf=&#45;0.189090908</text>
</g>
<!-- 12&#45;&gt;17 -->
<g id="edge15" class="edge"><title>12&#45;&gt;17</title>
<path fill="none" stroke="#ff0000" d="M577.981,-173.799C577.297,-162.163 576.378,-146.548 575.595,-133.237"/>
<polygon fill="#ff0000" stroke="#ff0000" points="579.085,-132.953 575.003,-123.175 572.097,-133.364 579.085,-132.953"/>
<text text-anchor="middle" x="586.493" y="-144.8" font-family="Times New Roman,serif" font-size="14.00">yes</text>
</g>
<!-- 18 -->
<g id="node17" class="node"><title>18</title>
<ellipse fill="none" stroke="black" cx="752.993" cy="-105" rx="82.5854" ry="18"/>
<text text-anchor="middle" x="752.993" y="-101.3" font-family="Times New Roman,serif" font-size="14.00">leaf=&#45;0.0761904791</text>
</g>
<!-- 12&#45;&gt;18 -->
<g id="edge16" class="edge"><title>12&#45;&gt;18</title>
<path fill="none" stroke="#0000ff" d="M611.721,-175.012C640.092,-161.153 681.282,-141.031 711.872,-126.088"/>
<polygon fill="#0000ff" stroke="#0000ff" points="713.551,-129.163 721,-121.629 710.478,-122.874 713.551,-129.163"/>
<text text-anchor="middle" x="707.993" y="-144.8" font-family="Times New Roman,serif" font-size="14.00">no, missing</text>
</g>
<!-- 21 -->
<g id="node14" class="node"><title>21</title>
<ellipse fill="none" stroke="black" cx="77.9931" cy="-18" rx="77.9862" ry="18"/>
<text text-anchor="middle" x="77.9931" y="-14.3" font-family="Times New Roman,serif" font-size="14.00">leaf=&#45;0.176923081</text>
</g>
<!-- 15&#45;&gt;21 -->
<g id="edge13" class="edge"><title>15&#45;&gt;21</title>
<path fill="none" stroke="#0000ff" d="M148.983,-86.799C135.661,-74.0757 117.358,-56.5961 102.674,-42.5721"/>
<polygon fill="#0000ff" stroke="#0000ff" points="105.02,-39.9726 95.3711,-35.597 100.185,-45.0348 105.02,-39.9726"/>
<text text-anchor="middle" x="162.493" y="-57.8" font-family="Times New Roman,serif" font-size="14.00">yes, missing</text>
</g>
<!-- 22 -->
<g id="node15" class="node"><title>22</title>
<ellipse fill="none" stroke="black" cx="256.993" cy="-18" rx="82.5854" ry="18"/>
<text text-anchor="middle" x="256.993" y="-14.3" font-family="Times New Roman,serif" font-size="14.00">leaf=&#45;0.0761904791</text>
</g>
<!-- 15&#45;&gt;22 -->
<g id="edge14" class="edge"><title>15&#45;&gt;22</title>
<path fill="none" stroke="#ff0000" d="M185.206,-86.799C198.678,-74.0757 217.185,-56.5961 232.034,-42.5721"/>
<polygon fill="#ff0000" stroke="#ff0000" points="234.553,-45.0078 239.42,-35.597 229.746,-39.9187 234.553,-45.0078"/>
<text text-anchor="middle" x="225.493" y="-57.8" font-family="Times New Roman,serif" font-size="14.00">no</text>
</g>
<!-- 13 -->
<g id="node20" class="node"><title>13</title>
<ellipse fill="none" stroke="black" cx="843.993" cy="-192" rx="77.9862" ry="18"/>
<text text-anchor="middle" x="843.993" y="-188.3" font-family="Times New Roman,serif" font-size="14.00">leaf=&#45;0.086666666</text>
</g>
<!-- 10&#45;&gt;13 -->
<g id="edge19" class="edge"><title>10&#45;&gt;13</title>
<path fill="none" stroke="#ff0000" d="M895.349,-261.207C886.117,-248.946 873.444,-232.114 862.997,-218.239"/>
<polygon fill="#ff0000" stroke="#ff0000" points="865.641,-215.933 856.83,-210.049 860.049,-220.143 865.641,-215.933"/>
<text text-anchor="middle" x="888.493" y="-231.8" font-family="Times New Roman,serif" font-size="14.00">yes</text>
</g>
<!-- 14 -->
<g id="node21" class="node"><title>14</title>
<ellipse fill="none" stroke="black" cx="1028.99" cy="-192" rx="89.0842" ry="18"/>
<text text-anchor="middle" x="1028.99" y="-188.3" font-family="Times New Roman,serif" font-size="14.00">STMean&lt;55.3694458</text>
</g>
<!-- 10&#45;&gt;14 -->
<g id="edge20" class="edge"><title>10&#45;&gt;14</title>
<path fill="none" stroke="#0000ff" d="M930.469,-262.211C949.21,-249.046 976.138,-230.13 997.107,-215.399"/>
<polygon fill="#0000ff" stroke="#0000ff" points="999.227,-218.187 1005.4,-209.575 995.204,-212.459 999.227,-218.187"/>
<text text-anchor="middle" x="1006.99" y="-231.8" font-family="Times New Roman,serif" font-size="14.00">no, missing</text>
</g>
<!-- 19 -->
<g id="node22" class="node"><title>19</title>
<ellipse fill="none" stroke="black" cx="919.993" cy="-105" rx="57.6901" ry="18"/>
<text text-anchor="middle" x="919.993" y="-101.3" font-family="Times New Roman,serif" font-size="14.00">QSMin&lt;16.5</text>
</g>
<!-- 14&#45;&gt;19 -->
<g id="edge21" class="edge"><title>14&#45;&gt;19</title>
<path fill="none" stroke="#ff0000" d="M1007.72,-174.409C990.848,-161.254 967.109,-142.742 948.58,-128.292"/>
<polygon fill="#ff0000" stroke="#ff0000" points="950.514,-125.362 940.476,-121.973 946.21,-130.883 950.514,-125.362"/>
<text text-anchor="middle" x="990.493" y="-144.8" font-family="Times New Roman,serif" font-size="14.00">yes</text>
</g>
<!-- 20 -->
<g id="node23" class="node"><title>20</title>
<ellipse fill="none" stroke="black" cx="1077.99" cy="-105" rx="82.5854" ry="18"/>
<text text-anchor="middle" x="1077.99" y="-101.3" font-family="Times New Roman,serif" font-size="14.00">leaf=&#45;0.0761904791</text>
</g>
<!-- 14&#45;&gt;20 -->
<g id="edge22" class="edge"><title>14&#45;&gt;20</title>
<path fill="none" stroke="#0000ff" d="M1038.91,-173.799C1045.86,-161.738 1055.28,-145.403 1063.13,-131.79"/>
<polygon fill="#0000ff" stroke="#0000ff" points="1066.3,-133.297 1068.26,-122.885 1060.23,-129.801 1066.3,-133.297"/>
<text text-anchor="middle" x="1087.99" y="-144.8" font-family="Times New Roman,serif" font-size="14.00">no, missing</text>
</g>
<!-- 23 -->
<g id="node24" class="node"><title>23</title>
<ellipse fill="none" stroke="black" cx="832.993" cy="-18" rx="79.0865" ry="18"/>
<text text-anchor="middle" x="832.993" y="-14.3" font-family="Times New Roman,serif" font-size="14.00">leaf=0.0432432443</text>
</g>
<!-- 19&#45;&gt;23 -->
<g id="edge23" class="edge"><title>19&#45;&gt;23</title>
<path fill="none" stroke="#ff0000" d="M903.219,-87.6111C890.184,-74.876 871.922,-57.0337 857.288,-42.7363"/>
<polygon fill="#ff0000" stroke="#ff0000" points="859.612,-40.1135 850.013,-35.6286 854.72,-45.1205 859.612,-40.1135"/>
<text text-anchor="middle" x="890.493" y="-57.8" font-family="Times New Roman,serif" font-size="14.00">yes</text>
</g>
<!-- 24 -->
<g id="node25" class="node"><title>24</title>
<ellipse fill="none" stroke="black" cx="1005.99" cy="-18" rx="75.2868" ry="18"/>
<text text-anchor="middle" x="1005.99" y="-14.3" font-family="Times New Roman,serif" font-size="14.00">leaf=0.181818187</text>
</g>
<!-- 19&#45;&gt;24 -->
<g id="edge24" class="edge"><title>19&#45;&gt;24</title>
<path fill="none" stroke="#0000ff" d="M936.575,-87.6111C949.46,-74.876 967.512,-57.0337 981.978,-42.7363"/>
<polygon fill="#0000ff" stroke="#0000ff" points="984.517,-45.1475 989.169,-35.6286 979.596,-40.1689 984.517,-45.1475"/>
<text text-anchor="middle" x="999.993" y="-57.8" font-family="Times New Roman,serif" font-size="14.00">no, missing</text>
</g>
</g>
</svg>
