<?xml version="1.0" encoding="UTF-8" standalone="no"?>
<!DOCTYPE svg PUBLIC "-//W3C//DTD SVG 1.1//EN"
 "http://www.w3.org/Graphics/SVG/1.1/DTD/svg11.dtd">
<!-- Generated by graphviz version 2.38.0 (20140413.2041)
 -->
<!-- Title: %3 Pages: 1 -->
<svg width="4135pt" height="566pt"
 viewBox="0.00 0.00 4135.39 566.00" xmlns="http://www.w3.org/2000/svg" xmlns:xlink="http://www.w3.org/1999/xlink">
<g id="graph0" class="graph" transform="scale(1 1) rotate(0) translate(4 562)">
<title>%3</title>
<polygon fill="white" stroke="none" points="-4,4 -4,-562 4131.39,-562 4131.39,4 -4,4"/>
<!-- 0 -->
<g id="node1" class="node"><title>0</title>
<ellipse fill="none" stroke="black" cx="1857.99" cy="-540" rx="108.581" ry="18"/>
<text text-anchor="middle" x="1857.99" y="-536.3" font-family="Times New Roman,serif" font-size="14.00">HRV_pNN20&lt;70.5400238</text>
</g>
<!-- 1 -->
<g id="node2" class="node"><title>1</title>
<ellipse fill="none" stroke="black" cx="1660.99" cy="-453" rx="122.678" ry="18"/>
<text text-anchor="middle" x="1660.99" y="-449.3" font-family="Times New Roman,serif" font-size="14.00">ECG_Rate_Mean&lt;130.070358</text>
</g>
<!-- 0&#45;&gt;1 -->
<g id="edge1" class="edge"><title>0&#45;&gt;1</title>
<path fill="none" stroke="#0000ff" d="M1820.94,-523.012C1788.95,-509.209 1742.56,-489.195 1707.97,-474.27"/>
<polygon fill="#0000ff" stroke="#0000ff" points="1709.12,-470.953 1698.55,-470.205 1706.35,-477.381 1709.12,-470.953"/>
<text text-anchor="middle" x="1806.49" y="-492.8" font-family="Times New Roman,serif" font-size="14.00">yes, missing</text>
</g>
<!-- 2 -->
<g id="node3" class="node"><title>2</title>
<ellipse fill="none" stroke="black" cx="1994.99" cy="-453" rx="122.678" ry="18"/>
<text text-anchor="middle" x="1994.99" y="-449.3" font-family="Times New Roman,serif" font-size="14.00">ECG_Rate_Mean&lt;88.1369019</text>
</g>
<!-- 0&#45;&gt;2 -->
<g id="edge2" class="edge"><title>0&#45;&gt;2</title>
<path fill="none" stroke="#ff0000" d="M1884.73,-522.409C1906,-509.214 1935.95,-490.632 1959.27,-476.163"/>
<polygon fill="#ff0000" stroke="#ff0000" points="1961.2,-479.086 1967.85,-470.839 1957.51,-473.137 1961.2,-479.086"/>
<text text-anchor="middle" x="1942.49" y="-492.8" font-family="Times New Roman,serif" font-size="14.00">no</text>
</g>
<!-- 3 -->
<g id="node4" class="node"><title>3</title>
<ellipse fill="none" stroke="black" cx="986.993" cy="-366" rx="92.8835" ry="18"/>
<text text-anchor="middle" x="986.993" y="-362.3" font-family="Times New Roman,serif" font-size="14.00">HRV_IQRNN&lt;123.75</text>
</g>
<!-- 1&#45;&gt;3 -->
<g id="edge3" class="edge"><title>1&#45;&gt;3</title>
<path fill="none" stroke="#0000ff" d="M1571.14,-440.669C1440.72,-424.221 1200.61,-393.94 1072.61,-377.798"/>
<polygon fill="#0000ff" stroke="#0000ff" points="1072.82,-374.297 1062.46,-376.518 1071.95,-381.242 1072.82,-374.297"/>
<text text-anchor="middle" x="1399.49" y="-405.8" font-family="Times New Roman,serif" font-size="14.00">yes, missing</text>
</g>
<!-- 4 -->
<g id="node5" class="node"><title>4</title>
<ellipse fill="none" stroke="black" cx="1660.99" cy="-366" rx="86.3847" ry="18"/>
<text text-anchor="middle" x="1660.99" y="-362.3" font-family="Times New Roman,serif" font-size="14.00">HRV_pNN20&lt;48.75</text>
</g>
<!-- 1&#45;&gt;4 -->
<g id="edge4" class="edge"><title>1&#45;&gt;4</title>
<path fill="none" stroke="#ff0000" d="M1660.99,-434.799C1660.99,-423.163 1660.99,-407.548 1660.99,-394.237"/>
<polygon fill="#ff0000" stroke="#ff0000" points="1664.49,-394.175 1660.99,-384.175 1657.49,-394.175 1664.49,-394.175"/>
<text text-anchor="middle" x="1668.49" y="-405.8" font-family="Times New Roman,serif" font-size="14.00">no</text>
</g>
<!-- 5 -->
<g id="node22" class="node"><title>5</title>
<ellipse fill="none" stroke="black" cx="1994.99" cy="-366" rx="111.28" ry="18"/>
<text text-anchor="middle" x="1994.99" y="-362.3" font-family="Times New Roman,serif" font-size="14.00">HRV_MadNN&lt;116.137001</text>
</g>
<!-- 2&#45;&gt;5 -->
<g id="edge21" class="edge"><title>2&#45;&gt;5</title>
<path fill="none" stroke="#0000ff" d="M1994.99,-434.799C1994.99,-423.163 1994.99,-407.548 1994.99,-394.237"/>
<polygon fill="#0000ff" stroke="#0000ff" points="1998.49,-394.175 1994.99,-384.175 1991.49,-394.175 1998.49,-394.175"/>
<text text-anchor="middle" x="2029.49" y="-405.8" font-family="Times New Roman,serif" font-size="14.00">yes, missing</text>
</g>
<!-- 6 -->
<g id="node23" class="node"><title>6</title>
<ellipse fill="none" stroke="black" cx="2909.99" cy="-366" rx="90.1842" ry="18"/>
<text text-anchor="middle" x="2909.99" y="-362.3" font-family="Times New Roman,serif" font-size="14.00">QSMean&lt;23.5913963</text>
</g>
<!-- 2&#45;&gt;6 -->
<g id="edge22" class="edge"><title>2&#45;&gt;6</title>
<path fill="none" stroke="#ff0000" d="M2095.97,-442.62C2275.74,-425.92 2648.47,-391.294 2820.02,-375.359"/>
<polygon fill="#ff0000" stroke="#ff0000" points="2820.39,-378.839 2830.02,-374.429 2819.74,-371.869 2820.39,-378.839"/>
<text text-anchor="middle" x="2515.49" y="-405.8" font-family="Times New Roman,serif" font-size="14.00">no</text>
</g>
<!-- 7 -->
<g id="node6" class="node"><title>7</title>
<ellipse fill="none" stroke="black" cx="541.993" cy="-279" rx="110.48" ry="18"/>
<text text-anchor="middle" x="541.993" y="-275.3" font-family="Times New Roman,serif" font-size="14.00">HRV_IQRNN&lt;102.916672</text>
</g>
<!-- 3&#45;&gt;7 -->
<g id="edge5" class="edge"><title>3&#45;&gt;7</title>
<path fill="none" stroke="#0000ff" d="M923.235,-352.822C843.481,-337.588 706.948,-311.508 620.746,-295.043"/>
<polygon fill="#0000ff" stroke="#0000ff" points="621.23,-291.572 610.751,-293.133 619.916,-298.448 621.23,-291.572"/>
<text text-anchor="middle" x="826.493" y="-318.8" font-family="Times New Roman,serif" font-size="14.00">yes, missing</text>
</g>
<!-- 8 -->
<g id="node7" class="node"><title>8</title>
<ellipse fill="none" stroke="black" cx="986.993" cy="-279" rx="110.48" ry="18"/>
<text text-anchor="middle" x="986.993" y="-275.3" font-family="Times New Roman,serif" font-size="14.00">RdTMean&lt;3.01154311e&#45;13</text>
</g>
<!-- 3&#45;&gt;8 -->
<g id="edge6" class="edge"><title>3&#45;&gt;8</title>
<path fill="none" stroke="#ff0000" d="M986.993,-347.799C986.993,-336.163 986.993,-320.548 986.993,-307.237"/>
<polygon fill="#ff0000" stroke="#ff0000" points="990.493,-307.175 986.993,-297.175 983.493,-307.175 990.493,-307.175"/>
<text text-anchor="middle" x="994.493" y="-318.8" font-family="Times New Roman,serif" font-size="14.00">no</text>
</g>
<!-- 9 -->
<g id="node20" class="node"><title>9</title>
<ellipse fill="none" stroke="black" cx="1499.99" cy="-279" rx="79.0865" ry="18"/>
<text text-anchor="middle" x="1499.99" y="-275.3" font-family="Times New Roman,serif" font-size="14.00">leaf=0.0761904791</text>
</g>
<!-- 4&#45;&gt;9 -->
<g id="edge19" class="edge"><title>4&#45;&gt;9</title>
<path fill="none" stroke="#0000ff" d="M1630.28,-349.018C1618.88,-343.066 1605.83,-336.242 1593.99,-330 1575.78,-320.4 1555.62,-309.689 1538.66,-300.651"/>
<polygon fill="#0000ff" stroke="#0000ff" points="1540.07,-297.436 1529.6,-295.82 1536.78,-303.613 1540.07,-297.436"/>
<text text-anchor="middle" x="1628.49" y="-318.8" font-family="Times New Roman,serif" font-size="14.00">yes, missing</text>
</g>
<!-- 10 -->
<g id="node21" class="node"><title>10</title>
<ellipse fill="none" stroke="black" cx="1672.99" cy="-279" rx="75.2868" ry="18"/>
<text text-anchor="middle" x="1672.99" y="-275.3" font-family="Times New Roman,serif" font-size="14.00">leaf=0.196226418</text>
</g>
<!-- 4&#45;&gt;10 -->
<g id="edge20" class="edge"><title>4&#45;&gt;10</title>
<path fill="none" stroke="#ff0000" d="M1663.42,-347.799C1665.06,-336.163 1667.27,-320.548 1669.15,-307.237"/>
<polygon fill="#ff0000" stroke="#ff0000" points="1672.64,-307.567 1670.57,-297.175 1665.7,-306.588 1672.64,-307.567"/>
<text text-anchor="middle" x="1675.49" y="-318.8" font-family="Times New Roman,serif" font-size="14.00">no</text>
</g>
<!-- 15 -->
<g id="node8" class="node"><title>15</title>
<ellipse fill="none" stroke="black" cx="251.993" cy="-192" rx="100.983" ry="18"/>
<text text-anchor="middle" x="251.993" y="-188.3" font-family="Times New Roman,serif" font-size="14.00">PStatMean&lt;&#45;14.8870916</text>
</g>
<!-- 7&#45;&gt;15 -->
<g id="edge7" class="edge"><title>7&#45;&gt;15</title>
<path fill="none" stroke="#0000ff" d="M490.814,-262.999C440.862,-248.358 364.877,-226.087 312.081,-210.612"/>
<polygon fill="#0000ff" stroke="#0000ff" points="312.756,-207.163 302.175,-207.708 310.787,-213.88 312.756,-207.163"/>
<text text-anchor="middle" x="449.493" y="-231.8" font-family="Times New Roman,serif" font-size="14.00">yes, missing</text>
</g>
<!-- 16 -->
<g id="node9" class="node"><title>16</title>
<ellipse fill="none" stroke="black" cx="541.993" cy="-192" rx="113.18" ry="18"/>
<text text-anchor="middle" x="541.993" y="-188.3" font-family="Times New Roman,serif" font-size="14.00">HRV_RMSSD&lt;63.6483383</text>
</g>
<!-- 7&#45;&gt;16 -->
<g id="edge8" class="edge"><title>7&#45;&gt;16</title>
<path fill="none" stroke="#ff0000" d="M541.993,-260.799C541.993,-249.163 541.993,-233.548 541.993,-220.237"/>
<polygon fill="#ff0000" stroke="#ff0000" points="545.493,-220.175 541.993,-210.175 538.493,-220.175 545.493,-220.175"/>
<text text-anchor="middle" x="549.493" y="-231.8" font-family="Times New Roman,serif" font-size="14.00">no</text>
</g>
<!-- 17 -->
<g id="node14" class="node"><title>17</title>
<ellipse fill="none" stroke="black" cx="931.993" cy="-192" rx="90.1842" ry="18"/>
<text text-anchor="middle" x="931.993" y="-188.3" font-family="Times New Roman,serif" font-size="14.00">QSMean&lt;31.4271965</text>
</g>
<!-- 8&#45;&gt;17 -->
<g id="edge13" class="edge"><title>8&#45;&gt;17</title>
<path fill="none" stroke="#0000ff" d="M975.863,-260.799C967.984,-248.622 957.286,-232.089 948.427,-218.398"/>
<polygon fill="#0000ff" stroke="#0000ff" points="951.29,-216.38 942.919,-209.885 945.413,-220.182 951.29,-216.38"/>
<text text-anchor="middle" x="997.493" y="-231.8" font-family="Times New Roman,serif" font-size="14.00">yes, missing</text>
</g>
<!-- 18 -->
<g id="node15" class="node"><title>18</title>
<ellipse fill="none" stroke="black" cx="1148.99" cy="-192" rx="108.581" ry="18"/>
<text text-anchor="middle" x="1148.99" y="-188.3" font-family="Times New Roman,serif" font-size="14.00">HRV_pNN50&lt;47.2836533</text>
</g>
<!-- 8&#45;&gt;18 -->
<g id="edge14" class="edge"><title>8&#45;&gt;18</title>
<path fill="none" stroke="#ff0000" d="M1018.23,-261.611C1044,-248.088 1080.75,-228.807 1108.73,-214.126"/>
<polygon fill="#ff0000" stroke="#ff0000" points="1110.62,-217.084 1117.85,-209.339 1107.37,-210.886 1110.62,-217.084"/>
<text text-anchor="middle" x="1085.49" y="-231.8" font-family="Times New Roman,serif" font-size="14.00">no</text>
</g>
<!-- 27 -->
<g id="node10" class="node"><title>27</title>
<ellipse fill="none" stroke="black" cx="77.9931" cy="-105" rx="77.9862" ry="18"/>
<text text-anchor="middle" x="77.9931" y="-101.3" font-family="Times New Roman,serif" font-size="14.00">leaf=&#45;0.148148149</text>
</g>
<!-- 15&#45;&gt;27 -->
<g id="edge9" class="edge"><title>15&#45;&gt;27</title>
<path fill="none" stroke="#0000ff" d="M218.15,-174.883C205.809,-168.977 191.754,-162.218 178.993,-156 158.981,-146.249 136.807,-135.29 118.345,-126.121"/>
<polygon fill="#0000ff" stroke="#0000ff" points="119.847,-122.959 109.334,-121.642 116.731,-129.228 119.847,-122.959"/>
<text text-anchor="middle" x="213.493" y="-144.8" font-family="Times New Roman,serif" font-size="14.00">yes, missing</text>
</g>
<!-- 28 -->
<g id="node11" class="node"><title>28</title>
<ellipse fill="none" stroke="black" cx="251.993" cy="-105" rx="77.9862" ry="18"/>
<text text-anchor="middle" x="251.993" y="-101.3" font-family="Times New Roman,serif" font-size="14.00">leaf=&#45;0.197843462</text>
</g>
<!-- 15&#45;&gt;28 -->
<g id="edge10" class="edge"><title>15&#45;&gt;28</title>
<path fill="none" stroke="#ff0000" d="M251.993,-173.799C251.993,-162.163 251.993,-146.548 251.993,-133.237"/>
<polygon fill="#ff0000" stroke="#ff0000" points="255.493,-133.175 251.993,-123.175 248.493,-133.175 255.493,-133.175"/>
<text text-anchor="middle" x="259.493" y="-144.8" font-family="Times New Roman,serif" font-size="14.00">no</text>
</g>
<!-- 29 -->
<g id="node12" class="node"><title>29</title>
<ellipse fill="none" stroke="black" cx="425.993" cy="-105" rx="77.9862" ry="18"/>
<text text-anchor="middle" x="425.993" y="-101.3" font-family="Times New Roman,serif" font-size="14.00">leaf=&#45;0.192857146</text>
</g>
<!-- 16&#45;&gt;29 -->
<g id="edge11" class="edge"><title>16&#45;&gt;29</title>
<path fill="none" stroke="#0000ff" d="M519.075,-174.207C501.245,-161.142 476.33,-142.885 456.764,-128.547"/>
<polygon fill="#0000ff" stroke="#0000ff" points="458.604,-125.557 448.469,-122.469 454.466,-131.203 458.604,-125.557"/>
<text text-anchor="middle" x="525.493" y="-144.8" font-family="Times New Roman,serif" font-size="14.00">yes, missing</text>
</g>
<!-- 30 -->
<g id="node13" class="node"><title>30</title>
<ellipse fill="none" stroke="black" cx="599.993" cy="-105" rx="77.9862" ry="18"/>
<text text-anchor="middle" x="599.993" y="-101.3" font-family="Times New Roman,serif" font-size="14.00">leaf=&#45;0.095238097</text>
</g>
<!-- 16&#45;&gt;30 -->
<g id="edge12" class="edge"><title>16&#45;&gt;30</title>
<path fill="none" stroke="#ff0000" d="M553.73,-173.799C562.039,-161.622 573.321,-145.089 582.663,-131.398"/>
<polygon fill="#ff0000" stroke="#ff0000" points="585.726,-133.118 588.471,-122.885 579.944,-129.173 585.726,-133.118"/>
<text text-anchor="middle" x="582.493" y="-144.8" font-family="Times New Roman,serif" font-size="14.00">no</text>
</g>
<!-- 31 -->
<g id="node16" class="node"><title>31</title>
<ellipse fill="none" stroke="black" cx="778.993" cy="-105" rx="82.5854" ry="18"/>
<text text-anchor="middle" x="778.993" y="-101.3" font-family="Times New Roman,serif" font-size="14.00">leaf=&#45;0.0761904791</text>
</g>
<!-- 17&#45;&gt;31 -->
<g id="edge15" class="edge"><title>17&#45;&gt;31</title>
<path fill="none" stroke="#ff0000" d="M902.855,-174.812C878.424,-161.239 843.369,-141.764 816.783,-126.994"/>
<polygon fill="#ff0000" stroke="#ff0000" points="818.205,-123.78 807.763,-121.984 814.805,-129.9 818.205,-123.78"/>
<text text-anchor="middle" x="874.493" y="-144.8" font-family="Times New Roman,serif" font-size="14.00">yes</text>
</g>
<!-- 32 -->
<g id="node17" class="node"><title>32</title>
<ellipse fill="none" stroke="black" cx="954.993" cy="-105" rx="75.2868" ry="18"/>
<text text-anchor="middle" x="954.993" y="-101.3" font-family="Times New Roman,serif" font-size="14.00">leaf=0.160000011</text>
</g>
<!-- 17&#45;&gt;32 -->
<g id="edge16" class="edge"><title>17&#45;&gt;32</title>
<path fill="none" stroke="#0000ff" d="M936.647,-173.799C939.827,-162.047 944.105,-146.238 947.73,-132.842"/>
<polygon fill="#0000ff" stroke="#0000ff" points="951.112,-133.743 950.346,-123.175 944.355,-131.914 951.112,-133.743"/>
<text text-anchor="middle" x="976.993" y="-144.8" font-family="Times New Roman,serif" font-size="14.00">no, missing</text>
</g>
<!-- 33 -->
<g id="node18" class="node"><title>33</title>
<ellipse fill="none" stroke="black" cx="1125.99" cy="-105" rx="77.9862" ry="18"/>
<text text-anchor="middle" x="1125.99" y="-101.3" font-family="Times New Roman,serif" font-size="14.00">leaf=&#45;0.196078435</text>
</g>
<!-- 18&#45;&gt;33 -->
<g id="edge17" class="edge"><title>18&#45;&gt;33</title>
<path fill="none" stroke="#0000ff" d="M1144.34,-173.799C1141.16,-162.047 1136.88,-146.238 1133.26,-132.842"/>
<polygon fill="#0000ff" stroke="#0000ff" points="1136.63,-131.914 1130.64,-123.175 1129.87,-133.743 1136.63,-131.914"/>
<text text-anchor="middle" x="1173.49" y="-144.8" font-family="Times New Roman,serif" font-size="14.00">yes, missing</text>
</g>
<!-- 34 -->
<g id="node19" class="node"><title>34</title>
<ellipse fill="none" stroke="black" cx="1304.99" cy="-105" rx="82.5854" ry="18"/>
<text text-anchor="middle" x="1304.99" y="-101.3" font-family="Times New Roman,serif" font-size="14.00">leaf=&#45;0.0761904791</text>
</g>
<!-- 18&#45;&gt;34 -->
<g id="edge18" class="edge"><title>18&#45;&gt;34</title>
<path fill="none" stroke="#ff0000" d="M1179.07,-174.611C1204.13,-160.958 1239.96,-141.436 1267,-126.704"/>
<polygon fill="#ff0000" stroke="#ff0000" points="1268.69,-129.765 1275.8,-121.907 1265.34,-123.618 1268.69,-129.765"/>
<text text-anchor="middle" x="1244.49" y="-144.8" font-family="Times New Roman,serif" font-size="14.00">no</text>
</g>
<!-- 11 -->
<g id="node24" class="node"><title>11</title>
<ellipse fill="none" stroke="black" cx="1912.99" cy="-279" rx="122.678" ry="18"/>
<text text-anchor="middle" x="1912.99" y="-275.3" font-family="Times New Roman,serif" font-size="14.00">ECG_Rate_Mean&lt;72.7312775</text>
</g>
<!-- 5&#45;&gt;11 -->
<g id="edge23" class="edge"><title>5&#45;&gt;11</title>
<path fill="none" stroke="#0000ff" d="M1978.4,-347.799C1966.32,-335.274 1949.79,-318.141 1936.37,-304.231"/>
<polygon fill="#0000ff" stroke="#0000ff" points="1938.74,-301.652 1929.28,-296.885 1933.71,-306.512 1938.74,-301.652"/>
<text text-anchor="middle" x="1993.49" y="-318.8" font-family="Times New Roman,serif" font-size="14.00">yes, missing</text>
</g>
<!-- 12 -->
<g id="node25" class="node"><title>12</title>
<ellipse fill="none" stroke="black" cx="2292.99" cy="-279" rx="97.4827" ry="18"/>
<text text-anchor="middle" x="2292.99" y="-275.3" font-family="Times New Roman,serif" font-size="14.00">PStatMean&lt;41.4149284</text>
</g>
<!-- 5&#45;&gt;12 -->
<g id="edge24" class="edge"><title>5&#45;&gt;12</title>
<path fill="none" stroke="#ff0000" d="M2047.24,-350.097C2098.94,-335.35 2178.02,-312.794 2232.44,-297.273"/>
<polygon fill="#ff0000" stroke="#ff0000" points="2233.64,-300.569 2242.3,-294.46 2231.72,-293.837 2233.64,-300.569"/>
<text text-anchor="middle" x="2169.49" y="-318.8" font-family="Times New Roman,serif" font-size="14.00">no</text>
</g>
<!-- 13 -->
<g id="node42" class="node"><title>13</title>
<ellipse fill="none" stroke="black" cx="2909.99" cy="-279" rx="106.681" ry="18"/>
<text text-anchor="middle" x="2909.99" y="-275.3" font-family="Times New Roman,serif" font-size="14.00">PStatMean&lt;0.0538427308</text>
</g>
<!-- 6&#45;&gt;13 -->
<g id="edge41" class="edge"><title>6&#45;&gt;13</title>
<path fill="none" stroke="#ff0000" d="M2909.99,-347.799C2909.99,-336.163 2909.99,-320.548 2909.99,-307.237"/>
<polygon fill="#ff0000" stroke="#ff0000" points="2913.49,-307.175 2909.99,-297.175 2906.49,-307.175 2913.49,-307.175"/>
<text text-anchor="middle" x="2919.49" y="-318.8" font-family="Times New Roman,serif" font-size="14.00">yes</text>
</g>
<!-- 14 -->
<g id="node43" class="node"><title>14</title>
<ellipse fill="none" stroke="black" cx="3293.99" cy="-279" rx="94.7833" ry="18"/>
<text text-anchor="middle" x="3293.99" y="-275.3" font-family="Times New Roman,serif" font-size="14.00">RTSkew&lt;0.901114702</text>
</g>
<!-- 6&#45;&gt;14 -->
<g id="edge42" class="edge"><title>6&#45;&gt;14</title>
<path fill="none" stroke="#0000ff" d="M2967.9,-352.183C3036.63,-336.967 3151.17,-311.615 3224.59,-295.363"/>
<polygon fill="#0000ff" stroke="#0000ff" points="3225.66,-298.71 3234.67,-293.132 3224.15,-291.876 3225.66,-298.71"/>
<text text-anchor="middle" x="3155.99" y="-318.8" font-family="Times New Roman,serif" font-size="14.00">no, missing</text>
</g>
<!-- 19 -->
<g id="node26" class="node"><title>19</title>
<ellipse fill="none" stroke="black" cx="1657.99" cy="-192" rx="85.5853" ry="18"/>
<text text-anchor="middle" x="1657.99" y="-188.3" font-family="Times New Roman,serif" font-size="14.00">PStatStd&lt;29.774765</text>
</g>
<!-- 11&#45;&gt;19 -->
<g id="edge25" class="edge"><title>11&#45;&gt;19</title>
<path fill="none" stroke="#0000ff" d="M1865.92,-262.311C1822.22,-247.742 1757.2,-226.068 1711.53,-210.845"/>
<polygon fill="#0000ff" stroke="#0000ff" points="1712.4,-207.446 1701.81,-207.604 1710.19,-214.087 1712.4,-207.446"/>
<text text-anchor="middle" x="1835.49" y="-231.8" font-family="Times New Roman,serif" font-size="14.00">yes, missing</text>
</g>
<!-- 20 -->
<g id="node27" class="node"><title>20</title>
<ellipse fill="none" stroke="black" cx="1912.99" cy="-192" rx="89.8845" ry="18"/>
<text text-anchor="middle" x="1912.99" y="-188.3" font-family="Times New Roman,serif" font-size="14.00">PRMean&lt;48.9156418</text>
</g>
<!-- 11&#45;&gt;20 -->
<g id="edge26" class="edge"><title>11&#45;&gt;20</title>
<path fill="none" stroke="#ff0000" d="M1912.99,-260.799C1912.99,-249.163 1912.99,-233.548 1912.99,-220.237"/>
<polygon fill="#ff0000" stroke="#ff0000" points="1916.49,-220.175 1912.99,-210.175 1909.49,-220.175 1916.49,-220.175"/>
<text text-anchor="middle" x="1920.49" y="-231.8" font-family="Times New Roman,serif" font-size="14.00">no</text>
</g>
<!-- 21 -->
<g id="node34" class="node"><title>21</title>
<ellipse fill="none" stroke="black" cx="2292.99" cy="-192" rx="95.5831" ry="18"/>
<text text-anchor="middle" x="2292.99" y="-188.3" font-family="Times New Roman,serif" font-size="14.00">HRV_KFD&lt;4.1809063</text>
</g>
<!-- 12&#45;&gt;21 -->
<g id="edge33" class="edge"><title>12&#45;&gt;21</title>
<path fill="none" stroke="#0000ff" d="M2292.99,-260.799C2292.99,-249.163 2292.99,-233.548 2292.99,-220.237"/>
<polygon fill="#0000ff" stroke="#0000ff" points="2296.49,-220.175 2292.99,-210.175 2289.49,-220.175 2296.49,-220.175"/>
<text text-anchor="middle" x="2327.49" y="-231.8" font-family="Times New Roman,serif" font-size="14.00">yes, missing</text>
</g>
<!-- 22 -->
<g id="node35" class="node"><title>22</title>
<ellipse fill="none" stroke="black" cx="2543.99" cy="-192" rx="122.678" ry="18"/>
<text text-anchor="middle" x="2543.99" y="-188.3" font-family="Times New Roman,serif" font-size="14.00">ECG_Rate_Mean&lt;68.6519928</text>
</g>
<!-- 12&#45;&gt;22 -->
<g id="edge34" class="edge"><title>12&#45;&gt;22</title>
<path fill="none" stroke="#ff0000" d="M2337.58,-262.902C2379.58,-248.679 2442.65,-227.32 2488.01,-211.957"/>
<polygon fill="#ff0000" stroke="#ff0000" points="2489.35,-215.2 2497.7,-208.677 2487.11,-208.569 2489.35,-215.2"/>
<text text-anchor="middle" x="2441.49" y="-231.8" font-family="Times New Roman,serif" font-size="14.00">no</text>
</g>
<!-- 35 -->
<g id="node28" class="node"><title>35</title>
<ellipse fill="none" stroke="black" cx="1483.99" cy="-105" rx="77.9862" ry="18"/>
<text text-anchor="middle" x="1483.99" y="-101.3" font-family="Times New Roman,serif" font-size="14.00">leaf=&#45;0.126666665</text>
</g>
<!-- 19&#45;&gt;35 -->
<g id="edge27" class="edge"><title>19&#45;&gt;35</title>
<path fill="none" stroke="#0000ff" d="M1624.88,-175.233C1612.37,-169.245 1598.01,-162.341 1584.99,-156 1564.98,-146.249 1542.81,-135.29 1524.35,-126.121"/>
<polygon fill="#0000ff" stroke="#0000ff" points="1525.85,-122.959 1515.33,-121.642 1522.73,-129.228 1525.85,-122.959"/>
<text text-anchor="middle" x="1619.49" y="-144.8" font-family="Times New Roman,serif" font-size="14.00">yes, missing</text>
</g>
<!-- 36 -->
<g id="node29" class="node"><title>36</title>
<ellipse fill="none" stroke="black" cx="1657.99" cy="-105" rx="77.9862" ry="18"/>
<text text-anchor="middle" x="1657.99" y="-101.3" font-family="Times New Roman,serif" font-size="14.00">leaf=&#45;0.197435901</text>
</g>
<!-- 19&#45;&gt;36 -->
<g id="edge28" class="edge"><title>19&#45;&gt;36</title>
<path fill="none" stroke="#ff0000" d="M1657.99,-173.799C1657.99,-162.163 1657.99,-146.548 1657.99,-133.237"/>
<polygon fill="#ff0000" stroke="#ff0000" points="1661.49,-133.175 1657.99,-123.175 1654.49,-133.175 1661.49,-133.175"/>
<text text-anchor="middle" x="1665.49" y="-144.8" font-family="Times New Roman,serif" font-size="14.00">no</text>
</g>
<!-- 37 -->
<g id="node30" class="node"><title>37</title>
<ellipse fill="none" stroke="black" cx="1831.99" cy="-105" rx="77.9862" ry="18"/>
<text text-anchor="middle" x="1831.99" y="-101.3" font-family="Times New Roman,serif" font-size="14.00">leaf=&#45;0.192000002</text>
</g>
<!-- 20&#45;&gt;37 -->
<g id="edge29" class="edge"><title>20&#45;&gt;37</title>
<path fill="none" stroke="#0000ff" d="M1896.99,-174.207C1885.01,-161.633 1868.44,-144.252 1855.04,-130.182"/>
<polygon fill="#0000ff" stroke="#0000ff" points="1857.4,-127.583 1847.96,-122.758 1852.33,-132.412 1857.4,-127.583"/>
<text text-anchor="middle" x="1912.49" y="-144.8" font-family="Times New Roman,serif" font-size="14.00">yes, missing</text>
</g>
<!-- 38 -->
<g id="node31" class="node"><title>38</title>
<ellipse fill="none" stroke="black" cx="2024.99" cy="-105" rx="97.4827" ry="18"/>
<text text-anchor="middle" x="2024.99" y="-101.3" font-family="Times New Roman,serif" font-size="14.00">PStatMean&lt;39.7528915</text>
</g>
<!-- 20&#45;&gt;38 -->
<g id="edge30" class="edge"><title>20&#45;&gt;38</title>
<path fill="none" stroke="#ff0000" d="M1934.85,-174.409C1952.04,-161.363 1976.18,-143.049 1995.14,-128.653"/>
<polygon fill="#ff0000" stroke="#ff0000" points="1997.34,-131.382 2003.19,-122.549 1993.11,-125.806 1997.34,-131.382"/>
<text text-anchor="middle" x="1983.49" y="-144.8" font-family="Times New Roman,serif" font-size="14.00">no</text>
</g>
<!-- 49 -->
<g id="node32" class="node"><title>49</title>
<ellipse fill="none" stroke="black" cx="1870.99" cy="-18" rx="75.2868" ry="18"/>
<text text-anchor="middle" x="1870.99" y="-14.3" font-family="Times New Roman,serif" font-size="14.00">leaf=0.112000003</text>
</g>
<!-- 38&#45;&gt;49 -->
<g id="edge31" class="edge"><title>38&#45;&gt;49</title>
<path fill="none" stroke="#0000ff" d="M1993.5,-87.8778C1982.24,-82.0298 1969.5,-75.3091 1957.99,-69 1941.01,-59.6886 1922.37,-49.0344 1906.71,-39.9599"/>
<polygon fill="#0000ff" stroke="#0000ff" points="1908.28,-36.8222 1897.88,-34.8217 1904.76,-42.8738 1908.28,-36.8222"/>
<text text-anchor="middle" x="1992.49" y="-57.8" font-family="Times New Roman,serif" font-size="14.00">yes, missing</text>
</g>
<!-- 50 -->
<g id="node33" class="node"><title>50</title>
<ellipse fill="none" stroke="black" cx="2037.99" cy="-18" rx="73.387" ry="18"/>
<text text-anchor="middle" x="2037.99" y="-14.3" font-family="Times New Roman,serif" font-size="14.00">leaf=&#45;0.13333334</text>
</g>
<!-- 38&#45;&gt;50 -->
<g id="edge32" class="edge"><title>38&#45;&gt;50</title>
<path fill="none" stroke="#ff0000" d="M2027.62,-86.799C2029.4,-75.1626 2031.79,-59.5479 2033.83,-46.2368"/>
<polygon fill="#ff0000" stroke="#ff0000" points="2037.31,-46.5897 2035.37,-36.1754 2030.39,-45.5313 2037.31,-46.5897"/>
<text text-anchor="middle" x="2040.49" y="-57.8" font-family="Times New Roman,serif" font-size="14.00">no</text>
</g>
<!-- 39 -->
<g id="node36" class="node"><title>39</title>
<ellipse fill="none" stroke="black" cx="2248.99" cy="-105" rx="108.581" ry="18"/>
<text text-anchor="middle" x="2248.99" y="-101.3" font-family="Times New Roman,serif" font-size="14.00">HRV_pNN20&lt;84.9002838</text>
</g>
<!-- 21&#45;&gt;39 -->
<g id="edge35" class="edge"><title>21&#45;&gt;39</title>
<path fill="none" stroke="#0000ff" d="M2284.09,-173.799C2277.89,-161.817 2269.5,-145.617 2262.48,-132.057"/>
<polygon fill="#0000ff" stroke="#0000ff" points="2265.59,-130.447 2257.88,-123.175 2259.37,-133.665 2265.59,-130.447"/>
<text text-anchor="middle" x="2308.49" y="-144.8" font-family="Times New Roman,serif" font-size="14.00">yes, missing</text>
</g>
<!-- 40 -->
<g id="node37" class="node"><title>40</title>
<ellipse fill="none" stroke="black" cx="2411.99" cy="-105" rx="36.2938" ry="18"/>
<text text-anchor="middle" x="2411.99" y="-101.3" font-family="Times New Roman,serif" font-size="14.00">leaf=&#45;0</text>
</g>
<!-- 21&#45;&gt;40 -->
<g id="edge36" class="edge"><title>21&#45;&gt;40</title>
<path fill="none" stroke="#ff0000" d="M2319.1,-174.683C2328.04,-168.931 2338.05,-162.32 2346.99,-156 2360,-146.807 2374.05,-136.103 2385.74,-126.962"/>
<polygon fill="#ff0000" stroke="#ff0000" points="2388.1,-129.56 2393.8,-120.627 2383.77,-124.058 2388.1,-129.56"/>
<text text-anchor="middle" x="2375.49" y="-144.8" font-family="Times New Roman,serif" font-size="14.00">no</text>
</g>
<!-- 41 -->
<g id="node40" class="node"><title>41</title>
<ellipse fill="none" stroke="black" cx="2543.99" cy="-105" rx="77.9862" ry="18"/>
<text text-anchor="middle" x="2543.99" y="-101.3" font-family="Times New Roman,serif" font-size="14.00">leaf=&#45;0.128000006</text>
</g>
<!-- 22&#45;&gt;41 -->
<g id="edge39" class="edge"><title>22&#45;&gt;41</title>
<path fill="none" stroke="#0000ff" d="M2543.99,-173.799C2543.99,-162.163 2543.99,-146.548 2543.99,-133.237"/>
<polygon fill="#0000ff" stroke="#0000ff" points="2547.49,-133.175 2543.99,-123.175 2540.49,-133.175 2547.49,-133.175"/>
<text text-anchor="middle" x="2578.49" y="-144.8" font-family="Times New Roman,serif" font-size="14.00">yes, missing</text>
</g>
<!-- 42 -->
<g id="node41" class="node"><title>42</title>
<ellipse fill="none" stroke="black" cx="2718.99" cy="-105" rx="79.0865" ry="18"/>
<text text-anchor="middle" x="2718.99" y="-101.3" font-family="Times New Roman,serif" font-size="14.00">leaf=0.0454545468</text>
</g>
<!-- 22&#45;&gt;42 -->
<g id="edge40" class="edge"><title>22&#45;&gt;42</title>
<path fill="none" stroke="#ff0000" d="M2578.19,-174.68C2590.44,-168.813 2604.35,-162.131 2616.99,-156 2637.18,-146.211 2659.58,-135.247 2678.22,-126.086"/>
<polygon fill="#ff0000" stroke="#ff0000" points="2679.9,-129.164 2687.33,-121.611 2676.81,-122.882 2679.9,-129.164"/>
<text text-anchor="middle" x="2653.49" y="-144.8" font-family="Times New Roman,serif" font-size="14.00">no</text>
</g>
<!-- 51 -->
<g id="node38" class="node"><title>51</title>
<ellipse fill="none" stroke="black" cx="2234.99" cy="-18" rx="79.0865" ry="18"/>
<text text-anchor="middle" x="2234.99" y="-14.3" font-family="Times New Roman,serif" font-size="14.00">leaf=0.0695652217</text>
</g>
<!-- 39&#45;&gt;51 -->
<g id="edge37" class="edge"><title>39&#45;&gt;51</title>
<path fill="none" stroke="#0000ff" d="M2246.16,-86.799C2244.24,-75.1626 2241.67,-59.5479 2239.48,-46.2368"/>
<polygon fill="#0000ff" stroke="#0000ff" points="2242.9,-45.4737 2237.82,-36.1754 2235.99,-46.6113 2242.9,-45.4737"/>
<text text-anchor="middle" x="2277.49" y="-57.8" font-family="Times New Roman,serif" font-size="14.00">yes, missing</text>
</g>
<!-- 52 -->
<g id="node39" class="node"><title>52</title>
<ellipse fill="none" stroke="black" cx="2407.99" cy="-18" rx="75.2868" ry="18"/>
<text text-anchor="middle" x="2407.99" y="-14.3" font-family="Times New Roman,serif" font-size="14.00">leaf=0.186666667</text>
</g>
<!-- 39&#45;&gt;52 -->
<g id="edge38" class="edge"><title>39&#45;&gt;52</title>
<path fill="none" stroke="#ff0000" d="M2280.41,-87.7248C2291.65,-81.8623 2304.41,-75.1717 2315.99,-69 2333.86,-59.4784 2353.6,-48.778 2370.19,-39.7266"/>
<polygon fill="#ff0000" stroke="#ff0000" points="2371.96,-42.7504 2379.05,-34.8856 2368.6,-36.6068 2371.96,-42.7504"/>
<text text-anchor="middle" x="2351.49" y="-57.8" font-family="Times New Roman,serif" font-size="14.00">no</text>
</g>
<!-- 23 -->
<g id="node44" class="node"><title>23</title>
<ellipse fill="none" stroke="black" cx="2801.99" cy="-192" rx="75.2868" ry="18"/>
<text text-anchor="middle" x="2801.99" y="-188.3" font-family="Times New Roman,serif" font-size="14.00">leaf=0.192857146</text>
</g>
<!-- 13&#45;&gt;23 -->
<g id="edge43" class="edge"><title>13&#45;&gt;23</title>
<path fill="none" stroke="#0000ff" d="M2888.66,-261.207C2872.13,-248.2 2849.07,-230.049 2830.89,-215.74"/>
<polygon fill="#0000ff" stroke="#0000ff" points="2832.94,-212.903 2822.92,-209.469 2828.61,-218.404 2832.94,-212.903"/>
<text text-anchor="middle" x="2897.49" y="-231.8" font-family="Times New Roman,serif" font-size="14.00">yes, missing</text>
</g>
<!-- 24 -->
<g id="node45" class="node"><title>24</title>
<ellipse fill="none" stroke="black" cx="3017.99" cy="-192" rx="122.678" ry="18"/>
<text text-anchor="middle" x="3017.99" y="-188.3" font-family="Times New Roman,serif" font-size="14.00">ECG_Rate_Mean&lt;115.485321</text>
</g>
<!-- 13&#45;&gt;24 -->
<g id="edge44" class="edge"><title>13&#45;&gt;24</title>
<path fill="none" stroke="#ff0000" d="M2931.33,-261.207C2947.75,-248.284 2970.62,-230.283 2988.75,-216.018"/>
<polygon fill="#ff0000" stroke="#ff0000" points="2991.01,-218.693 2996.7,-209.758 2986.68,-213.193 2991.01,-218.693"/>
<text text-anchor="middle" x="2978.49" y="-231.8" font-family="Times New Roman,serif" font-size="14.00">no</text>
</g>
<!-- 25 -->
<g id="node48" class="node"><title>25</title>
<ellipse fill="none" stroke="black" cx="3293.99" cy="-192" rx="92.8835" ry="18"/>
<text text-anchor="middle" x="3293.99" y="-188.3" font-family="Times New Roman,serif" font-size="14.00">HRV_IQRNN&lt;103.75</text>
</g>
<!-- 14&#45;&gt;25 -->
<g id="edge47" class="edge"><title>14&#45;&gt;25</title>
<path fill="none" stroke="#0000ff" d="M3293.99,-260.799C3293.99,-249.163 3293.99,-233.548 3293.99,-220.237"/>
<polygon fill="#0000ff" stroke="#0000ff" points="3297.49,-220.175 3293.99,-210.175 3290.49,-220.175 3297.49,-220.175"/>
<text text-anchor="middle" x="3328.49" y="-231.8" font-family="Times New Roman,serif" font-size="14.00">yes, missing</text>
</g>
<!-- 26 -->
<g id="node49" class="node"><title>26</title>
<ellipse fill="none" stroke="black" cx="3713.99" cy="-192" rx="94.7833" ry="18"/>
<text text-anchor="middle" x="3713.99" y="-188.3" font-family="Times New Roman,serif" font-size="14.00">SStatMin&lt;&#45;1.18736219</text>
</g>
<!-- 14&#45;&gt;26 -->
<g id="edge48" class="edge"><title>14&#45;&gt;26</title>
<path fill="none" stroke="#ff0000" d="M3356.42,-265.366C3432.57,-249.955 3561.07,-223.948 3641.52,-207.667"/>
<polygon fill="#ff0000" stroke="#ff0000" points="3642.46,-211.048 3651.57,-205.633 3641.07,-204.187 3642.46,-211.048"/>
<text text-anchor="middle" x="3536.49" y="-231.8" font-family="Times New Roman,serif" font-size="14.00">no</text>
</g>
<!-- 43 -->
<g id="node46" class="node"><title>43</title>
<ellipse fill="none" stroke="black" cx="2893.99" cy="-105" rx="77.9862" ry="18"/>
<text text-anchor="middle" x="2893.99" y="-101.3" font-family="Times New Roman,serif" font-size="14.00">leaf=&#45;0.191666663</text>
</g>
<!-- 24&#45;&gt;43 -->
<g id="edge45" class="edge"><title>24&#45;&gt;43</title>
<path fill="none" stroke="#0000ff" d="M2993.49,-174.207C2974.14,-160.939 2946.98,-142.319 2925.92,-127.884"/>
<polygon fill="#0000ff" stroke="#0000ff" points="2927.83,-124.949 2917.6,-122.182 2923.87,-130.723 2927.83,-124.949"/>
<text text-anchor="middle" x="2998.49" y="-144.8" font-family="Times New Roman,serif" font-size="14.00">yes, missing</text>
</g>
<!-- 44 -->
<g id="node47" class="node"><title>44</title>
<ellipse fill="none" stroke="black" cx="3067.99" cy="-105" rx="77.9862" ry="18"/>
<text text-anchor="middle" x="3067.99" y="-101.3" font-family="Times New Roman,serif" font-size="14.00">leaf=&#45;0.114285722</text>
</g>
<!-- 24&#45;&gt;44 -->
<g id="edge46" class="edge"><title>24&#45;&gt;44</title>
<path fill="none" stroke="#ff0000" d="M3028.11,-173.799C3035.21,-161.738 3044.81,-145.403 3052.82,-131.79"/>
<polygon fill="#ff0000" stroke="#ff0000" points="3056.01,-133.279 3058.06,-122.885 3049.97,-129.73 3056.01,-133.279"/>
<text text-anchor="middle" x="3052.49" y="-144.8" font-family="Times New Roman,serif" font-size="14.00">no</text>
</g>
<!-- 45 -->
<g id="node50" class="node"><title>45</title>
<ellipse fill="none" stroke="black" cx="3270.99" cy="-105" rx="106.681" ry="18"/>
<text text-anchor="middle" x="3270.99" y="-101.3" font-family="Times New Roman,serif" font-size="14.00">HRV_IALS&lt;0.652112007</text>
</g>
<!-- 25&#45;&gt;45 -->
<g id="edge49" class="edge"><title>25&#45;&gt;45</title>
<path fill="none" stroke="#0000ff" d="M3289.34,-173.799C3286.16,-162.047 3281.88,-146.238 3278.26,-132.842"/>
<polygon fill="#0000ff" stroke="#0000ff" points="3281.63,-131.914 3275.64,-123.175 3274.87,-133.743 3281.63,-131.914"/>
<text text-anchor="middle" x="3317.49" y="-144.8" font-family="Times New Roman,serif" font-size="14.00">yes, missing</text>
</g>
<!-- 46 -->
<g id="node51" class="node"><title>46</title>
<ellipse fill="none" stroke="black" cx="3506.99" cy="-105" rx="111.28" ry="18"/>
<text text-anchor="middle" x="3506.99" y="-101.3" font-family="Times New Roman,serif" font-size="14.00">HRV_MadNN&lt;200.151001</text>
</g>
<!-- 25&#45;&gt;46 -->
<g id="edge50" class="edge"><title>25&#45;&gt;46</title>
<path fill="none" stroke="#ff0000" d="M3332.57,-175.607C3367.71,-161.582 3419.79,-140.798 3457.9,-125.593"/>
<polygon fill="#ff0000" stroke="#ff0000" points="3459.27,-128.812 3467.26,-121.855 3456.68,-122.31 3459.27,-128.812"/>
<text text-anchor="middle" x="3420.49" y="-144.8" font-family="Times New Roman,serif" font-size="14.00">no</text>
</g>
<!-- 47 -->
<g id="node56" class="node"><title>47</title>
<ellipse fill="none" stroke="black" cx="3713.99" cy="-105" rx="77.9862" ry="18"/>
<text text-anchor="middle" x="3713.99" y="-101.3" font-family="Times New Roman,serif" font-size="14.00">leaf=&#45;0.108333342</text>
</g>
<!-- 26&#45;&gt;47 -->
<g id="edge55" class="edge"><title>26&#45;&gt;47</title>
<path fill="none" stroke="#0000ff" d="M3713.99,-173.799C3713.99,-162.163 3713.99,-146.548 3713.99,-133.237"/>
<polygon fill="#0000ff" stroke="#0000ff" points="3717.49,-133.175 3713.99,-123.175 3710.49,-133.175 3717.49,-133.175"/>
<text text-anchor="middle" x="3748.49" y="-144.8" font-family="Times New Roman,serif" font-size="14.00">yes, missing</text>
</g>
<!-- 48 -->
<g id="node57" class="node"><title>48</title>
<ellipse fill="none" stroke="black" cx="3920.99" cy="-105" rx="111.28" ry="18"/>
<text text-anchor="middle" x="3920.99" y="-101.3" font-family="Times New Roman,serif" font-size="14.00">HRV_MadNN&lt;109.959503</text>
</g>
<!-- 26&#45;&gt;48 -->
<g id="edge56" class="edge"><title>26&#45;&gt;48</title>
<path fill="none" stroke="#ff0000" d="M3751.96,-175.41C3785.92,-161.463 3835.88,-140.949 3872.68,-125.837"/>
<polygon fill="#ff0000" stroke="#ff0000" points="3874.29,-128.96 3882.21,-121.924 3871.63,-122.485 3874.29,-128.96"/>
<text text-anchor="middle" x="3836.49" y="-144.8" font-family="Times New Roman,serif" font-size="14.00">no</text>
</g>
<!-- 53 -->
<g id="node52" class="node"><title>53</title>
<ellipse fill="none" stroke="black" cx="3114.99" cy="-18" rx="79.0865" ry="18"/>
<text text-anchor="middle" x="3114.99" y="-14.3" font-family="Times New Roman,serif" font-size="14.00">leaf=0.0190476198</text>
</g>
<!-- 45&#45;&gt;53 -->
<g id="edge51" class="edge"><title>45&#45;&gt;53</title>
<path fill="none" stroke="#0000ff" d="M3240.04,-87.7427C3228.96,-81.882 3216.39,-75.1878 3204.99,-69 3187.66,-59.5901 3168.55,-49.0028 3152.41,-40.0013"/>
<polygon fill="#0000ff" stroke="#0000ff" points="3153.73,-36.7272 3143.29,-34.9054 3150.31,-42.8382 3153.73,-36.7272"/>
<text text-anchor="middle" x="3239.49" y="-57.8" font-family="Times New Roman,serif" font-size="14.00">yes, missing</text>
</g>
<!-- 54 -->
<g id="node53" class="node"><title>54</title>
<ellipse fill="none" stroke="black" cx="3287.99" cy="-18" rx="75.2868" ry="18"/>
<text text-anchor="middle" x="3287.99" y="-14.3" font-family="Times New Roman,serif" font-size="14.00">leaf=0.194736838</text>
</g>
<!-- 45&#45;&gt;54 -->
<g id="edge52" class="edge"><title>45&#45;&gt;54</title>
<path fill="none" stroke="#ff0000" d="M3274.43,-86.799C3276.76,-75.1626 3279.88,-59.5479 3282.55,-46.2368"/>
<polygon fill="#ff0000" stroke="#ff0000" points="3286.03,-46.6677 3284.56,-36.1754 3279.16,-45.2948 3286.03,-46.6677"/>
<text text-anchor="middle" x="3287.49" y="-57.8" font-family="Times New Roman,serif" font-size="14.00">no</text>
</g>
<!-- 55 -->
<g id="node54" class="node"><title>55</title>
<ellipse fill="none" stroke="black" cx="3489.99" cy="-18" rx="75.2868" ry="18"/>
<text text-anchor="middle" x="3489.99" y="-14.3" font-family="Times New Roman,serif" font-size="14.00">leaf=0.197281554</text>
</g>
<!-- 46&#45;&gt;55 -->
<g id="edge53" class="edge"><title>46&#45;&gt;55</title>
<path fill="none" stroke="#0000ff" d="M3503.55,-86.799C3501.23,-75.1626 3498.1,-59.5479 3495.44,-46.2368"/>
<polygon fill="#0000ff" stroke="#0000ff" points="3498.82,-45.2948 3493.43,-36.1754 3491.96,-46.6677 3498.82,-45.2948"/>
<text text-anchor="middle" x="3533.49" y="-57.8" font-family="Times New Roman,serif" font-size="14.00">yes, missing</text>
</g>
<!-- 56 -->
<g id="node55" class="node"><title>56</title>
<ellipse fill="none" stroke="black" cx="3658.99" cy="-18" rx="75.2868" ry="18"/>
<text text-anchor="middle" x="3658.99" y="-14.3" font-family="Times New Roman,serif" font-size="14.00">leaf=0.130769238</text>
</g>
<!-- 46&#45;&gt;56 -->
<g id="edge54" class="edge"><title>46&#45;&gt;56</title>
<path fill="none" stroke="#ff0000" d="M3537.84,-87.616C3548.67,-81.8018 3560.91,-75.1696 3571.99,-69 3588.79,-59.6531 3607.27,-49.0744 3622.86,-40.0624"/>
<polygon fill="#ff0000" stroke="#ff0000" points="3624.78,-42.9992 3631.67,-34.9584 3621.27,-36.9419 3624.78,-42.9992"/>
<text text-anchor="middle" x="3605.49" y="-57.8" font-family="Times New Roman,serif" font-size="14.00">no</text>
</g>
<!-- 57 -->
<g id="node58" class="node"><title>57</title>
<ellipse fill="none" stroke="black" cx="3882.99" cy="-18" rx="75.2868" ry="18"/>
<text text-anchor="middle" x="3882.99" y="-14.3" font-family="Times New Roman,serif" font-size="14.00">leaf=0.095238097</text>
</g>
<!-- 48&#45;&gt;57 -->
<g id="edge57" class="edge"><title>48&#45;&gt;57</title>
<path fill="none" stroke="#0000ff" d="M3913.3,-86.799C3908,-74.9322 3900.84,-58.9279 3894.82,-45.4488"/>
<polygon fill="#0000ff" stroke="#0000ff" points="3897.95,-43.8762 3890.67,-36.1754 3891.56,-46.7332 3897.95,-43.8762"/>
<text text-anchor="middle" x="3938.49" y="-57.8" font-family="Times New Roman,serif" font-size="14.00">yes, missing</text>
</g>
<!-- 58 -->
<g id="node59" class="node"><title>58</title>
<ellipse fill="none" stroke="black" cx="4051.99" cy="-18" rx="75.2868" ry="18"/>
<text text-anchor="middle" x="4051.99" y="-14.3" font-family="Times New Roman,serif" font-size="14.00">leaf=0.191304356</text>
</g>
<!-- 48&#45;&gt;58 -->
<g id="edge58" class="edge"><title>48&#45;&gt;58</title>
<path fill="none" stroke="#ff0000" d="M3947.87,-87.4246C3957.14,-81.6517 3967.55,-75.0943 3976.99,-69 3991.12,-59.8785 4006.6,-49.6045 4019.81,-40.7529"/>
<polygon fill="#ff0000" stroke="#ff0000" points="4021.78,-43.6489 4028.13,-35.1679 4017.88,-37.8378 4021.78,-43.6489"/>
<text text-anchor="middle" x="4006.49" y="-57.8" font-family="Times New Roman,serif" font-size="14.00">no</text>
</g>
</g>
</svg>
